<svg version="1.1" id="Layer_1" xmlns="http://www.w3.org/2000/svg" xmlns:xlink="http://www.w3.org/1999/xlink" x="0px" y="0px"
	 width="100%" viewBox="0 0 384 184" enable-background="new 0 0 384 184" xml:space="preserve">
<path fill="#FEFEFF" opacity="1.000000" stroke="none" 
	d="
M283.000000,185.000000 
	C188.666718,185.000000 94.833435,185.000000 1.000113,185.000000 
	C1.000076,123.666748 1.000076,62.333500 1.000038,1.000187 
	C128.999847,1.000125 256.999695,1.000125 384.999634,1.000062 
	C384.999756,62.333149 384.999756,123.666298 384.999878,184.999725 
	C351.166656,185.000000 317.333344,185.000000 283.000000,185.000000 
M49.566399,31.496347 
	C48.031994,30.811129 46.497589,30.125912 44.124371,29.096718 
	C28.386347,27.533247 20.237633,37.283180 23.482859,51.579659 
	C24.337955,53.026314 25.193050,54.472973 25.997086,55.975502 
	C25.997086,55.975502 26.071152,55.959908 26.137564,56.640636 
	C27.848339,58.201622 29.559116,59.762608 31.133650,61.579220 
	C31.133650,61.579220 31.218540,61.856174 30.839647,62.517326 
	C30.574318,63.489803 30.308987,64.462280 29.386757,65.529282 
	C28.266457,69.358032 27.146156,73.186783 25.877684,76.948181 
	C25.877684,76.948181 25.726370,76.888214 25.168669,77.002800 
	C25.123293,77.671143 25.077917,78.339478 25.033077,79.749191 
	C25.366545,81.144501 25.700010,82.539818 25.992575,84.772713 
	C25.566746,88.755005 27.733681,89.886848 31.306707,90.000237 
	C35.548054,90.134827 39.777397,90.647690 44.164925,91.923988 
	C44.199116,110.431129 44.233307,128.938278 44.244465,148.106293 
	C44.775330,148.415787 45.306194,148.725281 46.094166,149.308762 
	C46.094166,149.308762 46.159046,149.678864 46.040081,150.579697 
	C45.468880,154.144241 47.118042,155.067337 50.515915,155.046005 
	C70.729012,154.919098 90.944748,154.854980 111.156128,155.080139 
	C115.820183,155.132095 117.616684,153.564407 117.298424,148.556641 
	C117.443306,148.027618 117.588181,147.498596 117.981583,146.255325 
	C118.145050,145.518448 118.308525,144.781570 119.145691,144.078217 
	C125.895226,139.103058 132.432236,133.929230 136.437927,125.457619 
	C144.925049,114.054901 149.812210,101.050972 151.687881,87.179024 
	C153.350662,74.881500 150.926498,63.090878 142.844269,52.360859 
	C137.772827,47.587936 132.701385,42.815014 128.002884,37.418522 
	C132.166763,33.580963 126.470970,32.874592 126.246048,29.677206 
	C124.112900,31.576902 122.651955,32.877964 120.380531,34.011391 
	C113.696602,31.679531 106.990837,31.538019 99.604424,33.714455 
	C96.371895,32.801872 94.900246,34.858532 93.204620,37.118965 
	C87.404755,44.850735 75.908554,45.172981 69.844437,37.930561 
	C65.190346,32.372147 63.690781,32.263763 56.505444,36.782047 
	C56.334156,36.839233 56.162868,36.896416 55.382870,36.722858 
	C54.520020,36.109432 53.657166,35.496006 52.628628,34.328083 
	C51.707310,33.569038 50.785995,32.809994 49.566399,31.496347 
M239.726166,98.506920 
	C240.556717,97.002373 241.387253,95.497826 242.369049,93.719307 
	C240.146332,93.250237 238.612946,92.926643 236.705902,92.524193 
	C237.677856,86.232491 244.717789,91.309219 245.851120,86.731972 
	C251.808411,93.370888 251.863693,100.957802 249.985229,109.302116 
	C255.108200,107.901016 258.280945,106.262932 258.126434,101.090637 
	C258.076111,99.406464 259.081696,97.604126 259.887970,95.998238 
	C261.816650,92.156761 263.913940,88.399948 266.073578,84.365349 
	C260.632202,83.194672 258.409210,86.816330 256.033661,90.538818 
	C253.404053,87.550751 252.813919,81.300697 246.960007,85.445442 
	C246.832794,85.535507 246.508804,85.591621 246.499863,85.570236 
	C244.494415,80.772728 240.801437,83.907043 237.991638,83.990273 
	C229.582077,84.239372 229.587738,84.423653 229.972595,92.110916 
	C229.980881,92.276787 229.982971,92.445724 229.962006,92.609909 
	C229.324677,97.603920 228.684082,102.597504 228.046646,107.570541 
	C236.997986,110.733452 242.343277,109.550545 243.534973,103.687675 
	C241.024826,103.687675 238.621185,103.687675 236.217560,103.687675 
	C235.913925,103.185905 235.610306,102.684135 235.306671,102.182365 
	C236.527481,101.044884 237.748306,99.907402 239.726166,98.506920 
M291.789368,105.330307 
	C295.382385,101.729866 296.277924,98.028519 292.089935,94.317642 
	C296.214569,88.157394 294.092346,83.600571 286.744324,83.370407 
	C283.371429,83.264771 279.684204,84.038795 276.663452,85.498344 
	C275.019318,86.292740 273.861725,89.284088 273.604034,91.419624 
	C273.352081,93.507652 274.887909,95.751938 274.980804,97.955368 
	C275.111328,101.051132 274.633911,104.172531 274.408630,107.395485 
	C280.499237,109.541054 286.042877,109.741180 291.789368,105.330307 
M197.985245,83.230240 
	C192.904343,83.753082 186.758469,81.692612 184.749115,87.294800 
	C189.606903,94.941154 184.649887,102.288803 186.454163,108.614204 
	C193.505325,109.589546 192.816315,103.934776 193.970978,98.994217 
	C196.175995,103.097977 197.787231,106.096649 199.572372,109.418953 
	C202.132111,108.215721 204.310822,107.191589 206.154877,106.324776 
	C204.066467,102.963821 202.208527,99.973747 200.419022,97.093842 
	C207.908829,89.816757 207.311905,85.913231 197.985245,83.230240 
M361.188080,101.003212 
	C359.611847,101.003212 358.035645,101.003212 355.788391,101.003212 
	C358.702057,95.372437 361.261047,90.427071 363.887726,85.350906 
	C347.285583,83.114716 346.672211,83.292503 345.115753,90.812691 
	C347.679413,91.108406 350.225891,91.402138 353.470520,91.776398 
	C350.359619,97.384804 347.615326,102.332283 344.468872,108.004761 
	C349.814209,108.004761 354.025360,108.427856 358.077209,107.808693 
	C359.842773,107.538902 361.402863,105.234123 362.777679,103.616714 
	C363.093811,103.244804 362.264191,101.899017 361.188080,101.003212 
M175.155228,108.947548 
	C178.613083,109.318024 180.353531,107.671768 180.791046,104.144325 
	C178.198334,103.971527 175.765701,103.809402 171.420914,103.519836 
	C173.470108,101.270058 174.620499,100.050102 175.721436,98.787033 
	C176.990875,97.330666 178.216675,95.836266 179.927933,93.804512 
	C177.185089,93.265205 175.658066,92.964958 174.131042,92.664711 
	C173.937027,92.163185 173.743011,91.661659 173.548996,91.160133 
	C174.844208,90.443748 176.172409,89.069435 177.428558,89.132408 
	C181.449188,89.333961 182.666870,87.281410 182.807053,83.206406 
	C180.060913,83.444252 177.495941,83.714340 174.924240,83.880318 
	C166.599991,84.417595 166.599258,84.402855 166.972549,92.121452 
	C166.980560,92.286827 166.982513,92.455200 166.961594,92.618881 
	C166.324997,97.600609 165.685135,102.581917 164.959747,108.233803 
	C168.116425,108.473053 171.191391,108.706116 175.155228,108.947548 
M211.418930,85.933365 
	C204.506348,93.773834 213.560516,97.129051 217.252228,103.091148 
	C213.828552,102.821609 211.678757,102.652351 208.418137,102.395645 
	C209.373779,104.623436 209.664749,107.276169 211.097748,108.252190 
	C214.634460,110.661064 221.481186,108.211510 223.745087,104.290604 
	C225.804398,100.724014 224.639221,97.507378 220.286469,94.179359 
	C218.805267,93.046860 217.568665,91.594444 216.220306,90.288200 
	C216.552109,89.771790 216.883911,89.255371 217.215698,88.738960 
	C219.421555,89.248528 221.627396,89.758102 223.801056,90.260239 
	C224.168777,83.997597 222.006470,82.113335 216.075500,83.677979 
	C214.662506,84.050735 213.357773,84.833931 211.418930,85.933365 
M325.503265,87.029076 
	C323.750122,92.148026 329.162079,88.561081 330.258179,92.039223 
	C329.982635,96.679161 329.625519,102.692406 329.255737,108.919228 
	C333.787842,108.661491 336.337769,107.384659 336.448608,102.776054 
	C336.549927,98.562370 337.309784,94.364525 337.758850,90.344139 
	C343.774261,89.626801 343.960999,89.418488 344.514038,83.113518 
	C339.014801,83.429428 333.569458,83.654846 328.148254,84.146248 
	C327.318054,84.221497 326.599121,85.524391 325.503265,87.029076 
M304.744049,101.351585 
	C305.163940,95.437721 305.583801,89.523857 306.002472,83.627296 
	C300.564240,83.039566 298.424469,85.209061 298.293427,90.235687 
	C298.134613,96.327332 297.411713,102.404266 296.930725,108.515312 
	C308.387848,110.275497 311.667114,109.135056 311.569946,103.396286 
	C309.335114,103.018898 307.124023,102.645523 304.744049,101.351585 
M198.567429,127.954208 
	C195.880219,128.135422 193.192993,128.316635 190.438034,128.502411 
	C188.720520,137.615005 189.669312,143.502884 193.252960,143.543350 
	C193.252960,140.719971 192.785339,137.785660 193.427795,135.118774 
	C193.815140,133.510849 195.928543,132.318710 197.266327,130.939743 
	C198.519012,132.376251 200.490448,133.649887 200.861282,135.286240 
	C201.465515,137.952469 201.024384,140.855606 201.024384,143.658783 
	C201.480560,143.894348 201.936737,144.129913 202.392914,144.365479 
	C203.092758,143.399750 204.217560,142.507584 204.400223,141.452332 
	C204.736557,139.509384 204.459488,137.467972 204.547195,135.472397 
	C204.660156,132.902344 205.547043,130.383667 208.546127,131.141739 
	C210.022385,131.514893 211.525711,133.742722 212.044739,135.430252 
	C212.654251,137.411911 212.079788,139.730850 212.289825,141.876984 
	C212.362503,142.619614 213.246689,143.282806 213.760208,143.982285 
	C214.433670,143.276062 215.641739,142.601349 215.685577,141.858002 
	C215.851440,139.044922 215.938400,136.162354 215.500565,133.393433 
	C214.812775,129.043716 210.708908,126.339790 207.056915,128.421860 
	C203.970657,130.181366 201.919907,129.191925 198.567429,127.954208 
M177.386597,144.215317 
	C179.997299,143.945923 182.608002,143.676529 185.786484,143.348557 
	C185.786484,138.920883 185.983994,134.155807 185.700699,129.419479 
	C185.565048,127.151955 184.518585,124.938904 183.884674,122.701187 
	C182.970993,124.703369 182.057327,126.705551 181.110184,128.781082 
	C174.626602,127.033012 170.800720,128.629257 169.471481,133.989960 
	C168.208954,139.081696 170.974045,143.029419 177.386597,144.215317 
M159.991592,103.187027 
	C160.747955,96.672531 161.504333,90.158028 162.241226,83.811356 
	C155.431656,82.825836 154.606827,86.624405 154.172470,91.385315 
	C153.744705,96.074150 155.691284,101.518417 150.486130,105.090218 
	C149.988297,105.431839 150.270721,107.861580 150.955704,108.688156 
	C151.550919,109.406433 153.684097,109.829628 154.344513,109.331573 
	C156.360428,107.811287 157.993652,105.783546 159.991592,103.187027 
M314.983551,99.267448 
	C314.739044,102.363449 314.494537,105.459457 314.223633,108.889755 
	C317.643890,108.577797 321.164520,109.240448 321.603363,105.052231 
	C322.344421,97.979591 322.676788,90.864136 323.187714,83.672646 
	C318.242035,83.446274 315.315430,84.674255 315.521790,89.877274 
	C315.633179,92.686775 315.198578,95.517921 314.983551,99.267448 
M278.875275,144.032471 
	C281.149231,143.864197 283.423157,143.695923 285.661316,143.530304 
	C285.661316,138.405060 285.661316,133.353897 285.661316,128.376404 
	C283.506500,128.376404 281.597687,128.671677 279.815582,128.321716 
	C274.192047,127.217407 270.375275,129.525879 269.679535,134.718109 
	C268.913818,140.432999 271.988800,143.853790 278.875275,144.032471 
M316.336090,127.958534 
	C310.773376,128.408768 308.313019,130.503677 307.920715,135.123444 
	C307.551483,139.471283 309.164520,142.836197 313.494720,143.913193 
	C317.421692,144.889923 321.057281,144.155670 322.668152,139.458527 
	C319.118500,137.990585 314.656433,145.157639 311.499878,137.339981 
	C313.807892,137.339981 315.558990,137.339981 317.310089,137.339981 
	C319.239380,137.339981 321.168671,137.339981 323.081116,137.339981 
	C323.155273,131.035416 322.489685,130.062775 316.336090,127.958534 
M164.054337,135.311569 
	C162.945786,132.176422 161.948624,128.994186 160.656357,125.936684 
	C160.299149,125.091553 159.005524,124.038712 158.245316,124.115028 
	C157.217392,124.218201 155.756714,125.114052 155.405624,126.025635 
	C153.174866,131.817780 151.198593,137.707947 149.138443,143.565811 
	C149.307053,144.087967 149.475662,144.610138 149.644257,145.132309 
	C155.245041,137.933304 160.929260,138.644363 166.673218,145.019501 
	C166.760269,144.496841 166.847321,143.974197 166.934372,143.451538 
	C166.049362,140.989166 165.164352,138.526794 164.054337,135.311569 
M256.859955,142.130341 
	C256.859955,140.201065 256.859955,138.271805 256.859955,136.418884 
	C265.408417,135.439896 268.000671,133.500443 267.287506,128.989975 
	C266.565521,124.423737 261.729309,122.872337 253.212402,124.693031 
	C253.212402,125.894661 253.211990,127.186935 253.212494,128.479202 
	C253.214188,132.778915 253.184448,137.078979 253.229156,141.378235 
	C253.259583,144.305786 254.456467,144.923706 256.859955,142.130341 
M293.596466,136.627121 
	C293.686432,133.901230 293.628632,130.933975 297.505920,131.000534 
	C301.413727,131.067596 301.153473,134.103546 301.208038,136.785416 
	C301.245209,138.613541 301.075745,140.466782 301.340240,142.258362 
	C301.436890,142.912918 302.444244,143.657150 303.185333,143.894379 
	C303.536713,144.006851 304.739136,142.983887 304.703857,142.543579 
	C304.377716,138.471237 304.681030,134.075439 303.176178,130.447815 
	C301.689575,126.864136 297.717560,127.716530 294.338409,128.626266 
	C293.242462,128.921326 291.896301,128.287003 290.307983,128.017212 
	C290.307983,133.561264 290.307983,138.627060 290.307983,144.091354 
	C295.585663,143.701813 292.829071,139.728729 293.596466,136.627121 
M237.877487,128.228241 
	C234.535873,128.228241 231.194260,128.228241 227.226074,128.228241 
	C227.226074,132.780029 227.137955,137.200790 227.305542,141.611847 
	C227.336487,142.426849 228.400818,143.202591 228.988190,143.996475 
	C229.615372,143.082153 230.660400,142.221375 230.785797,141.242752 
	C231.078735,138.956650 230.510040,136.496475 231.114059,134.337219 
	C231.489914,132.993652 233.344009,131.233261 234.581207,131.195740 
	C235.805725,131.158630 237.824768,132.845932 238.184814,134.141129 
	C238.830414,136.463516 238.299881,139.087555 238.659836,141.526657 
	C238.810913,142.550415 239.978073,143.424194 240.683304,144.366165 
	C241.152039,144.098724 241.620773,143.831284 242.089508,143.563858 
	C241.007690,138.561676 244.468903,132.653061 237.877487,128.228241 
M36.355080,148.819916 
	C37.903259,147.471832 39.451435,146.123734 41.661064,144.199692 
	C39.568562,142.368515 37.895939,140.904785 36.449299,139.638809 
	C34.511185,141.221603 32.788677,142.628326 30.642115,144.381363 
	C32.588032,146.103561 34.121937,147.461121 36.355080,148.819916 
M329.326324,143.842606 
	C329.543274,137.761414 329.819000,131.681137 329.912567,125.598061 
	C329.926331,124.704826 329.074646,123.798294 328.623383,122.897919 
	C327.992310,123.797745 326.845306,124.680717 326.815277,125.600159 
	C326.641998,130.908340 326.661407,136.227081 326.808136,141.536926 
	C326.830902,142.360596 327.844696,143.156860 329.326324,143.842606 
M29.850883,104.611252 
	C30.936068,105.557037 32.021252,106.502823 33.359303,107.668999 
	C34.996513,105.944519 36.511890,104.348358 38.182953,102.588219 
	C36.227566,100.744667 34.742138,99.344193 32.128876,96.880386 
	C30.977303,99.883667 30.143589,102.057976 29.850883,104.611252 
M219.718872,138.411743 
	C219.719604,139.240158 219.533279,140.126053 219.765945,140.883194 
	C220.095581,141.955856 220.734161,142.933578 221.240707,143.951874 
	C221.821838,142.854874 222.820511,141.788696 222.904129,140.654999 
	C223.135117,137.524078 223.106796,134.357407 222.914810,131.221176 
	C222.850281,130.166687 221.985123,129.161224 221.485901,128.133347 
	C220.898102,129.085876 219.927261,129.990906 219.801987,131.000824 
	C219.538879,133.122238 219.719986,135.298721 219.718872,138.411743 
z"/>
<path fill="#BBC8FD" opacity="1.000000" stroke="none" 
	d="
M142.832382,53.051353 
	C150.926498,63.090878 153.350662,74.881500 151.687881,87.179024 
	C149.812210,101.050972 144.925049,114.054901 135.848480,125.723427 
	C130.382263,125.836639 132.988571,121.058960 131.145447,118.787910 
	C132.250458,117.199242 133.220230,115.937576 134.127319,114.757469 
	C132.960175,113.029892 131.972366,111.567757 131.020782,109.741516 
	C133.093658,105.404778 129.819382,105.138466 126.224106,104.175201 
	C127.866066,102.255585 129.351410,101.039452 130.130829,99.472237 
	C131.044266,97.635544 131.947876,95.410217 131.687134,93.514198 
	C131.525208,92.336823 129.317459,90.887169 127.811867,90.562820 
	C124.621826,89.875618 121.290329,89.845062 118.121986,89.137024 
	C118.297081,88.170967 118.367027,87.613113 118.818588,86.959106 
	C122.921059,86.570892 126.655479,86.389503 130.356461,85.935493 
	C131.971008,85.737442 133.517014,84.980675 135.391815,84.290703 
	C136.037918,83.791931 136.386353,83.480103 137.055588,83.112396 
	C137.634705,81.718536 138.258072,80.330734 138.083588,79.051781 
	C137.537445,75.048637 136.690308,71.086555 136.184448,66.783890 
	C136.939758,63.560638 137.861572,60.667461 137.901596,57.762135 
	C137.951096,54.170345 139.216125,52.565536 142.832382,53.051353 
z"/>
<path fill="#C7D2FE" opacity="1.000000" stroke="none" 
	d="
M131.010223,119.114922 
	C132.988571,121.058960 130.382263,125.836639 135.646973,126.000717 
	C132.432236,133.929230 125.895226,139.103058 118.686142,143.615906 
	C118.005394,139.290604 117.784187,135.427612 117.538315,131.538391 
	C117.513641,131.512131 117.478416,131.490936 117.743484,131.052338 
	C118.032242,121.419418 118.141411,112.223724 117.995308,103.032089 
	C117.971031,101.504730 116.833733,99.995064 116.187775,98.500015 
	C116.164772,98.522812 115.926758,98.541672 115.763229,98.154907 
	C115.710960,95.005119 115.822227,92.242096 116.314819,89.695557 
	C116.936089,89.745087 117.176048,89.578125 117.549774,89.518356 
	C117.683540,89.625542 118.016838,89.545227 118.016838,89.545227 
	C121.290329,89.845062 124.621826,89.875618 127.811867,90.562820 
	C129.317459,90.887169 131.525208,92.336823 131.687134,93.514198 
	C131.947876,95.410217 131.044266,97.635544 130.130829,99.472237 
	C129.351410,101.039452 127.866066,102.255585 126.224106,104.175201 
	C129.819382,105.138466 133.093658,105.404778 130.670395,109.763718 
	C124.433304,114.774445 124.479935,115.349922 131.010223,119.114922 
z"/>
<path fill="#915AFF" opacity="1.000000" stroke="none" 
	d="
M239.347641,98.638428 
	C237.748306,99.907402 236.527481,101.044884 235.306671,102.182365 
	C235.610306,102.684135 235.913925,103.185905 236.217560,103.687675 
	C238.621185,103.687675 241.024826,103.687675 243.534973,103.687675 
	C242.343277,109.550545 236.997986,110.733452 228.046646,107.570541 
	C228.684082,102.597504 229.324677,97.603920 229.962006,92.609909 
	C229.982971,92.445724 229.980881,92.276787 229.972595,92.110916 
	C229.587738,84.423653 229.582077,84.239372 237.991638,83.990273 
	C240.801437,83.907043 244.494415,80.772728 246.499863,85.570236 
	C246.508804,85.591621 246.832794,85.535507 246.960007,85.445442 
	C252.813919,81.300697 253.404053,87.550751 256.033661,90.538818 
	C258.409210,86.816330 260.632202,83.194672 266.073578,84.365349 
	C263.913940,88.399948 261.816650,92.156761 259.887970,95.998238 
	C259.081696,97.604126 258.076111,99.406464 258.126434,101.090637 
	C258.280945,106.262932 255.108200,107.901016 249.985229,109.302116 
	C251.863693,100.957802 251.808411,93.370888 245.851120,86.731972 
	C244.717789,91.309219 237.677856,86.232491 236.705902,92.524193 
	C238.612946,92.926643 240.146332,93.250237 242.369049,93.719307 
	C241.387253,95.497826 240.556717,97.002373 239.347641,98.638428 
z"/>
<path fill="#2729D5" opacity="1.000000" stroke="none" 
	d="
M26.033476,83.935127 
	C25.700010,82.539818 25.366545,81.144501 25.296211,79.215645 
	C25.615021,78.084137 25.670696,77.486176 25.726372,76.888214 
	C25.726370,76.888214 25.877684,76.948181 26.281231,76.940376 
	C27.173162,76.519524 27.661549,76.106476 28.366642,75.935890 
	C28.743240,76.804047 28.903130,77.429741 28.849270,78.375786 
	C27.532370,83.056755 31.408857,81.554848 32.443127,81.192024 
	C35.829472,80.004120 41.053440,84.898499 42.791798,77.738388 
	C42.851814,72.707642 42.851814,68.153435 42.851814,63.623688 
	C38.582668,62.975052 34.900604,62.415611 31.218540,61.856174 
	C31.218540,61.856174 31.133650,61.579220 31.198862,61.172371 
	C31.176979,60.395142 31.089882,60.024757 31.026661,59.273796 
	C31.124249,58.390377 31.197962,57.887535 31.636366,57.576981 
	C32.763187,58.496811 33.500053,59.823357 34.291466,59.856747 
	C40.403088,60.114571 46.603825,60.470718 51.070171,54.907902 
	C51.624081,54.218010 52.805401,54.031868 53.907402,53.961159 
	C52.923355,55.951996 51.838608,57.691681 50.500599,59.207859 
	C49.219326,60.659733 46.469009,61.863995 46.451843,63.203827 
	C46.371010,69.513832 47.007912,75.833023 47.311424,82.504807 
	C47.346870,83.324669 47.459641,83.788666 47.475349,84.693649 
	C47.350712,104.244064 47.249180,123.354149 47.416885,142.461868 
	C47.432613,144.253479 49.147240,146.030182 50.003162,148.340256 
	C48.675179,149.137436 47.417114,149.408157 46.159050,149.678864 
	C46.159046,149.678864 46.094166,149.308762 45.940083,148.870422 
	C45.279831,148.103180 44.773666,147.774307 44.267498,147.445419 
	C44.233307,128.938278 44.199116,110.431129 44.206394,91.017578 
	C44.129696,88.369728 44.011524,86.628288 43.893890,84.894753 
	C37.549923,84.553894 31.791700,84.244514 26.033476,83.935127 
z"/>
<path fill="#DEDEF9" opacity="1.000000" stroke="none" 
	d="
M46.099564,150.129288 
	C47.417114,149.408157 48.675179,149.137436 50.195175,148.323517 
	C51.483818,147.837112 52.510529,147.893890 53.751598,148.139771 
	C54.123600,148.221893 54.281246,148.114914 54.389648,148.595032 
	C55.746159,148.787292 57.151920,148.392456 58.793530,148.157486 
	C59.175331,148.195801 59.321289,148.074219 59.852261,147.881714 
	C62.319630,147.858810 64.401978,147.906860 66.368271,148.486511 
	C67.852905,149.167587 69.453590,149.317047 71.340286,149.494232 
	C72.568245,149.689941 73.510201,149.857941 74.933876,150.065643 
	C78.382973,149.265396 82.227150,152.098679 84.785080,147.962067 
	C86.891548,147.716705 88.619820,147.468338 90.320389,147.625122 
	C90.640572,148.693985 91.002846,149.943954 91.334251,149.935837 
	C99.900063,149.725632 108.462654,149.384415 117.025810,149.065903 
	C117.616684,153.564407 115.820183,155.132095 111.156128,155.080139 
	C90.944748,154.854980 70.729012,154.919098 50.515915,155.046005 
	C47.118042,155.067337 45.468880,154.144241 46.099564,150.129288 
z"/>
<path fill="#915AFF" opacity="1.000000" stroke="none" 
	d="
M291.499451,105.566223 
	C286.042877,109.741180 280.499237,109.541054 274.408630,107.395485 
	C274.633911,104.172531 275.111328,101.051132 274.980804,97.955368 
	C274.887909,95.751938 273.352081,93.507652 273.604034,91.419624 
	C273.861725,89.284088 275.019318,86.292740 276.663452,85.498344 
	C279.684204,84.038795 283.371429,83.264771 286.744324,83.370407 
	C294.092346,83.600571 296.214569,88.157394 292.089935,94.317642 
	C296.277924,98.028519 295.382385,101.729866 291.499451,105.566223 
M281.426788,101.473579 
	C282.089355,102.292427 283.063507,103.912712 283.362457,103.796486 
	C284.969666,103.171562 286.408997,102.114861 287.906250,101.207199 
	C286.664948,99.597939 285.423645,97.988678 283.948364,96.076057 
	C284.473816,95.510513 285.365479,94.781479 285.953369,93.858871 
	C286.661102,92.748215 287.110626,91.473022 287.671936,90.269043 
	C286.683197,89.841278 285.330444,88.794617 284.782776,89.116745 
	C283.698914,89.754234 282.565674,91.053505 282.336761,92.248505 
	C281.809448,95.001244 281.810974,97.855286 281.426788,101.473579 
z"/>
<path fill="#915AFF" opacity="1.000000" stroke="none" 
	d="
M198.396622,83.291313 
	C207.311905,85.913231 207.908829,89.816757 200.419022,97.093842 
	C202.208527,99.973747 204.066467,102.963821 206.154877,106.324776 
	C204.310822,107.191589 202.132111,108.215721 199.572372,109.418953 
	C197.787231,106.096649 196.175995,103.097977 193.970978,98.994217 
	C192.816315,103.934776 193.505325,109.589546 186.454163,108.614204 
	C184.649887,102.288803 189.606903,94.941154 184.749115,87.294800 
	C186.758469,81.692612 192.904343,83.753082 198.396622,83.291313 
M194.080566,91.553131 
	C194.156830,92.619965 194.233078,93.686806 194.309341,94.753639 
	C194.716736,94.943497 195.124146,95.133347 195.531555,95.323204 
	C196.641495,93.566689 197.846985,91.856712 198.751343,90.000061 
	C198.877045,89.741959 197.110397,88.102905 196.914810,88.224159 
	C195.867386,88.873573 195.040344,89.878464 194.080566,91.553131 
z"/>
<path fill="#9058FF" opacity="1.000000" stroke="none" 
	d="
M361.574951,101.002319 
	C362.264191,101.899017 363.093811,103.244804 362.777679,103.616714 
	C361.402863,105.234123 359.842773,107.538902 358.077209,107.808693 
	C354.025360,108.427856 349.814209,108.004761 344.468872,108.004761 
	C347.615326,102.332283 350.359619,97.384804 353.470520,91.776398 
	C350.225891,91.402138 347.679413,91.108406 345.115753,90.812691 
	C346.672211,83.292503 347.285583,83.114716 363.887726,85.350906 
	C361.261047,90.427071 358.702057,95.372437 355.788391,101.003212 
	C358.035645,101.003212 359.611847,101.003212 361.574951,101.002319 
z"/>
<path fill="#915AFF" opacity="1.000000" stroke="none" 
	d="
M174.710800,108.943359 
	C171.191391,108.706116 168.116425,108.473053 164.959747,108.233803 
	C165.685135,102.581917 166.324997,97.600609 166.961594,92.618881 
	C166.982513,92.455200 166.980560,92.286827 166.972549,92.121452 
	C166.599258,84.402855 166.599991,84.417595 174.924240,83.880318 
	C177.495941,83.714340 180.060913,83.444252 182.807053,83.206406 
	C182.666870,87.281410 181.449188,89.333961 177.428558,89.132408 
	C176.172409,89.069435 174.844208,90.443748 173.548996,91.160133 
	C173.743011,91.661659 173.937027,92.163185 174.131042,92.664711 
	C175.658066,92.964958 177.185089,93.265205 179.927933,93.804512 
	C178.216675,95.836266 176.990875,97.330666 175.721436,98.787033 
	C174.620499,100.050102 173.470108,101.270058 171.420914,103.519836 
	C175.765701,103.809402 178.198334,103.971527 180.791046,104.144325 
	C180.353531,107.671768 178.613083,109.318024 174.710800,108.943359 
z"/>
<path fill="#925BFF" opacity="1.000000" stroke="none" 
	d="
M211.711090,85.680862 
	C213.357773,84.833931 214.662506,84.050735 216.075500,83.677979 
	C222.006470,82.113335 224.168777,83.997597 223.801056,90.260239 
	C221.627396,89.758102 219.421555,89.248528 217.215698,88.738960 
	C216.883911,89.255371 216.552109,89.771790 216.220306,90.288200 
	C217.568665,91.594444 218.805267,93.046860 220.286469,94.179359 
	C224.639221,97.507378 225.804398,100.724014 223.745087,104.290604 
	C221.481186,108.211510 214.634460,110.661064 211.097748,108.252190 
	C209.664749,107.276169 209.373779,104.623436 208.418137,102.395645 
	C211.678757,102.652351 213.828552,102.821609 217.252228,103.091148 
	C213.560516,97.129051 204.506348,93.773834 211.711090,85.680862 
z"/>
<path fill="#915AFF" opacity="1.000000" stroke="none" 
	d="
M325.665985,86.644287 
	C326.599121,85.524391 327.318054,84.221497 328.148254,84.146248 
	C333.569458,83.654846 339.014801,83.429428 344.514038,83.113518 
	C343.960999,89.418488 343.774261,89.626801 337.758850,90.344139 
	C337.309784,94.364525 336.549927,98.562370 336.448608,102.776054 
	C336.337769,107.384659 333.787842,108.661491 329.255737,108.919228 
	C329.625519,102.692406 329.982635,96.679161 330.258179,92.039223 
	C329.162079,88.561081 323.750122,92.148026 325.665985,86.644287 
z"/>
<path fill="#935CFF" opacity="1.000000" stroke="none" 
	d="
M304.828491,101.811867 
	C307.124023,102.645523 309.335114,103.018898 311.569946,103.396286 
	C311.667114,109.135056 308.387848,110.275497 296.930725,108.515312 
	C297.411713,102.404266 298.134613,96.327332 298.293427,90.235687 
	C298.424469,85.209061 300.564240,83.039566 306.002472,83.627296 
	C305.583801,89.523857 305.163940,95.437721 304.828491,101.811867 
z"/>
<path fill="#FF4141" opacity="1.000000" stroke="none" 
	d="
M199.007843,127.994255 
	C201.919907,129.191925 203.970657,130.181366 207.056915,128.421860 
	C210.708908,126.339790 214.812775,129.043716 215.500565,133.393433 
	C215.938400,136.162354 215.851440,139.044922 215.685577,141.858002 
	C215.641739,142.601349 214.433670,143.276062 213.760208,143.982285 
	C213.246689,143.282806 212.362503,142.619614 212.289825,141.876984 
	C212.079788,139.730850 212.654251,137.411911 212.044739,135.430252 
	C211.525711,133.742722 210.022385,131.514893 208.546127,131.141739 
	C205.547043,130.383667 204.660156,132.902344 204.547195,135.472397 
	C204.459488,137.467972 204.736557,139.509384 204.400223,141.452332 
	C204.217560,142.507584 203.092758,143.399750 202.392914,144.365479 
	C201.936737,144.129913 201.480560,143.894348 201.024384,143.658783 
	C201.024384,140.855606 201.465515,137.952469 200.861282,135.286240 
	C200.490448,133.649887 198.519012,132.376251 197.266327,130.939743 
	C195.928543,132.318710 193.815140,133.510849 193.427795,135.118774 
	C192.785339,137.785660 193.252960,140.719971 193.252960,143.543350 
	C189.669312,143.502884 188.720520,137.615005 190.438034,128.502411 
	C193.192993,128.316635 195.880219,128.135422 199.007843,127.994255 
z"/>
<path fill="#C2CDFD" opacity="1.000000" stroke="none" 
	d="
M142.838318,52.706108 
	C139.216125,52.565536 137.951096,54.170345 137.901596,57.762135 
	C137.861572,60.667461 136.939758,63.560638 135.906189,66.733932 
	C135.029678,66.963684 134.656082,66.918709 133.950287,66.720619 
	C133.095413,64.712982 132.572739,62.858456 132.209351,60.839714 
	C132.532150,60.247295 132.695663,59.819096 132.902023,58.973190 
	C132.479935,57.648369 132.014984,56.741261 131.531128,55.474133 
	C130.907181,49.321182 127.837273,45.320904 122.705719,42.459698 
	C123.224022,41.015236 123.654182,39.995197 124.404907,38.992119 
	C125.693619,38.686752 126.661789,38.364422 127.629951,38.042095 
	C132.701385,42.815014 137.772827,47.587936 142.838318,52.706108 
z"/>
<path fill="#6680FA" opacity="1.000000" stroke="none" 
	d="
M29.063021,78.055435 
	C28.903130,77.429741 28.743240,76.804047 28.554420,75.629517 
	C29.031548,71.865372 29.537605,68.650070 30.043659,65.434761 
	C30.308987,64.462280 30.574318,63.489803 31.029095,62.186752 
	C34.900604,62.415611 38.582668,62.975052 42.851814,63.623688 
	C42.851814,68.153435 42.851814,72.707642 42.352161,77.657166 
	C37.589348,78.053467 33.326183,78.054451 29.063021,78.055435 
z"/>
<path fill="#FF4848" opacity="1.000000" stroke="none" 
	d="
M177.021759,144.231949 
	C170.974045,143.029419 168.208954,139.081696 169.471481,133.989960 
	C170.800720,128.629257 174.626602,127.033012 181.110184,128.781082 
	C182.057327,126.705551 182.970993,124.703369 183.884659,122.701187 
	C184.518585,124.938904 185.565048,127.151955 185.700699,129.419479 
	C185.983994,134.155807 185.786484,138.920883 185.786484,143.348557 
	C182.608002,143.676529 179.997299,143.945923 177.021759,144.231949 
M177.500870,141.158600 
	C178.654861,140.630844 180.706406,140.228271 180.800644,139.552673 
	C181.131226,137.182709 181.337494,134.480652 180.437958,132.404160 
	C180.062454,131.537399 175.714966,131.086304 175.064743,131.920456 
	C173.785843,133.561111 173.461212,136.240265 173.507141,138.474075 
	C173.525528,139.368561 175.564453,140.221512 177.500870,141.158600 
z"/>
<path fill="#925BFF" opacity="1.000000" stroke="none" 
	d="
M159.883682,103.570145 
	C157.993652,105.783546 156.360428,107.811287 154.344513,109.331573 
	C153.684097,109.829628 151.550919,109.406433 150.955704,108.688156 
	C150.270721,107.861580 149.988297,105.431839 150.486130,105.090218 
	C155.691284,101.518417 153.744705,96.074150 154.172470,91.385315 
	C154.606827,86.624405 155.431656,82.825836 162.241226,83.811356 
	C161.504333,90.158028 160.747955,96.672531 159.883682,103.570145 
z"/>
<path fill="#4040D8" opacity="1.000000" stroke="none" 
	d="
M57.000420,37.002220 
	C63.690781,32.263763 65.190346,32.372147 69.844437,37.930561 
	C75.908554,45.172981 87.404755,44.850735 93.204620,37.118965 
	C94.900246,34.858532 96.371895,32.801872 100.031937,33.980293 
	C100.675774,34.489502 100.850113,34.759953 100.864670,35.320190 
	C100.481430,36.091854 100.215988,36.600803 99.577850,37.096798 
	C98.254181,37.527267 96.873146,37.707737 96.417000,38.453728 
	C90.010994,48.930325 73.099129,49.024235 66.271645,38.808289 
	C65.696510,37.947712 63.426445,38.219872 61.572899,37.954147 
	C60.461998,37.960182 59.722012,37.977859 58.651077,38.012131 
	C57.878086,38.032078 57.436031,38.035427 56.977737,38.021133 
	C56.961498,38.003494 56.927490,37.969681 56.935215,37.727024 
	C56.942940,37.484367 57.000420,37.002220 57.000420,37.002220 
z"/>
<path fill="#925AFF" opacity="1.000000" stroke="none" 
	d="
M314.996948,98.803375 
	C315.198578,95.517921 315.633179,92.686775 315.521790,89.877274 
	C315.315430,84.674255 318.242035,83.446274 323.187714,83.672646 
	C322.676788,90.864136 322.344421,97.979591 321.603363,105.052231 
	C321.164520,109.240448 317.643890,108.577797 314.223633,108.889755 
	C314.494537,105.459457 314.739044,102.363449 314.996948,98.803375 
z"/>
<path fill="#FF4343" opacity="1.000000" stroke="none" 
	d="
M278.511383,144.085419 
	C271.988800,143.853790 268.913818,140.432999 269.679535,134.718109 
	C270.375275,129.525879 274.192047,127.217407 279.815582,128.321716 
	C281.597687,128.671677 283.506500,128.376404 285.661316,128.376404 
	C285.661316,133.353897 285.661316,138.405060 285.661316,143.530304 
	C283.423157,143.695923 281.149231,143.864197 278.511383,144.085419 
M273.117676,134.818176 
	C272.890961,137.919754 273.561981,140.855637 277.143707,140.937180 
	C278.756104,140.973892 281.608978,139.150803 281.779907,137.885345 
	C282.055420,135.845215 281.211884,132.720734 279.694885,131.584305 
	C277.246796,129.750397 274.687653,131.174362 273.117676,134.818176 
z"/>
<path fill="#FF4141" opacity="1.000000" stroke="none" 
	d="
M316.737122,127.981674 
	C322.489685,130.062775 323.155273,131.035416 323.081116,137.339981 
	C321.168671,137.339981 319.239380,137.339981 317.310089,137.339981 
	C315.558990,137.339981 313.807892,137.339981 311.499878,137.339981 
	C314.656433,145.157639 319.118500,137.990585 322.668152,139.458527 
	C321.057281,144.155670 317.421692,144.889923 313.494720,143.913193 
	C309.164520,142.836197 307.551483,139.471283 307.920715,135.123444 
	C308.313019,130.503677 310.773376,128.408768 316.737122,127.981674 
M316.234314,130.833588 
	C314.647949,131.572617 313.061554,132.311661 311.475189,133.050705 
	C311.689728,133.516068 311.904236,133.981430 312.118774,134.446793 
	C314.621674,134.446793 317.124542,134.446793 321.086090,134.446793 
	C319.076416,132.714844 318.061401,131.840103 316.234314,130.833588 
z"/>
<path fill="#FF4141" opacity="1.000000" stroke="none" 
	d="
M164.166840,135.687988 
	C165.164352,138.526794 166.049362,140.989166 166.934372,143.451538 
	C166.847321,143.974197 166.760269,144.496841 166.673218,145.019501 
	C160.929260,138.644363 155.245041,137.933304 149.644257,145.132309 
	C149.475662,144.610138 149.307053,144.087967 149.138443,143.565811 
	C151.198593,137.707947 153.174866,131.817780 155.405624,126.025635 
	C155.756714,125.114052 157.217392,124.218201 158.245316,124.115028 
	C159.005524,124.038712 160.299149,125.091553 160.656357,125.936684 
	C161.948624,128.994186 162.945786,132.176422 164.166840,135.687988 
M160.240814,134.373825 
	C159.631149,132.685089 159.021484,130.996368 157.964584,128.068848 
	C156.663239,131.930328 155.865402,134.297745 155.067566,136.665146 
	C155.434464,137.075836 155.801361,137.486542 156.168259,137.897247 
	C157.630600,136.967133 159.092941,136.037033 160.240814,134.373825 
z"/>
<path fill="#FF4848" opacity="1.000000" stroke="none" 
	d="
M256.815186,142.571503 
	C254.456467,144.923706 253.259583,144.305786 253.229156,141.378235 
	C253.184448,137.078979 253.214188,132.778915 253.212494,128.479202 
	C253.211990,127.186935 253.212402,125.894661 253.212402,124.693031 
	C261.729309,122.872337 266.565521,124.423737 267.287506,128.989975 
	C268.000671,133.500443 265.408417,135.439896 256.859955,136.418884 
	C256.859955,138.271805 256.859955,140.201065 256.815186,142.571503 
M259.298737,126.869453 
	C254.877686,127.659355 257.442444,130.606934 258.085114,133.867935 
	C260.013458,132.693329 261.941833,131.518707 263.870209,130.344101 
	C262.638641,129.188095 261.407043,128.032089 259.298737,126.869453 
z"/>
<path fill="#FF4848" opacity="1.000000" stroke="none" 
	d="
M293.595398,137.082703 
	C292.829071,139.728729 295.585663,143.701813 290.307983,144.091354 
	C290.307983,138.627060 290.307983,133.561264 290.307983,128.017212 
	C291.896301,128.287003 293.242462,128.921326 294.338409,128.626266 
	C297.717560,127.716530 301.689575,126.864136 303.176178,130.447815 
	C304.681030,134.075439 304.377716,138.471237 304.703857,142.543579 
	C304.739136,142.983887 303.536713,144.006851 303.185333,143.894379 
	C302.444244,143.657150 301.436890,142.912918 301.340240,142.258362 
	C301.075745,140.466782 301.245209,138.613541 301.208038,136.785416 
	C301.153473,134.103546 301.413727,131.067596 297.505920,131.000534 
	C293.628632,130.933975 293.686432,133.901230 293.595398,137.082703 
z"/>
<path fill="#FF4747" opacity="1.000000" stroke="none" 
	d="
M238.235931,128.417694 
	C244.468903,132.653061 241.007690,138.561676 242.089508,143.563858 
	C241.620773,143.831284 241.152039,144.098724 240.683304,144.366165 
	C239.978073,143.424194 238.810913,142.550415 238.659836,141.526657 
	C238.299881,139.087555 238.830414,136.463516 238.184814,134.141129 
	C237.824768,132.845932 235.805725,131.158630 234.581207,131.195740 
	C233.344009,131.233261 231.489914,132.993652 231.114059,134.337219 
	C230.510040,136.496475 231.078735,138.956650 230.785797,141.242752 
	C230.660400,142.221375 229.615372,143.082153 228.988190,143.996460 
	C228.400818,143.202591 227.336487,142.426849 227.305542,141.611847 
	C227.137955,137.200790 227.226074,132.780029 227.226074,128.228241 
	C231.194260,128.228241 234.535873,128.228241 238.235931,128.417694 
z"/>
<path fill="#CCD4FC" opacity="1.000000" stroke="none" 
	d="
M100.982468,35.057472 
	C100.850113,34.759953 100.675774,34.489502 100.360229,34.028496 
	C106.990837,31.538019 113.696602,31.679531 120.769455,34.435726 
	C122.133705,36.231758 123.109024,37.603458 124.084351,38.975159 
	C123.654182,39.995197 123.224022,41.015236 122.321960,42.402313 
	C114.894196,40.198730 107.938332,37.628101 100.982468,35.057472 
z"/>
<path fill="#2E2FD5" opacity="1.000000" stroke="none" 
	d="
M31.271675,57.384693 
	C31.197962,57.887535 31.124249,58.390377 30.717102,59.211018 
	C28.946163,58.339180 27.508657,57.149544 26.071152,55.959908 
	C26.071152,55.959908 25.997086,55.975502 26.001965,55.610909 
	C25.196632,53.802616 24.386419,52.358913 23.576206,50.915211 
	C20.237633,37.283180 28.386347,27.533247 44.621925,29.559578 
	C46.092957,30.661995 47.066437,31.301554 47.769623,32.245251 
	C47.318291,32.751396 47.137245,32.953400 46.578529,33.035290 
	C41.130058,31.821680 36.169918,31.060896 31.452660,34.382412 
	C25.288546,38.722683 22.815722,49.602806 31.271675,57.384693 
z"/>
<path fill="#D7D8F8" opacity="1.000000" stroke="none" 
	d="
M26.013025,84.353920 
	C31.791700,84.244514 37.549923,84.553894 43.893890,84.894753 
	C44.011524,86.628288 44.129696,88.369728 44.129902,90.553902 
	C39.777397,90.647690 35.548054,90.134827 31.306707,90.000237 
	C27.733681,89.886848 25.566746,88.755005 26.013025,84.353920 
z"/>
<path fill="#2E2FD5" opacity="1.000000" stroke="none" 
	d="
M117.162117,148.811279 
	C108.462654,149.384415 99.900063,149.725632 91.334251,149.935837 
	C91.002846,149.943954 90.640572,148.693985 90.577560,147.581299 
	C91.193153,147.023193 91.523880,146.914047 92.274231,146.857285 
	C93.536888,146.836151 94.379913,146.762634 95.648178,146.789658 
	C98.984619,146.858856 101.895813,146.827499 105.220612,146.869202 
	C106.470833,146.911011 107.307457,146.879761 108.559151,146.890381 
	C110.915779,146.933105 112.857338,146.933929 115.165627,146.944092 
	C116.265930,146.958801 116.999489,146.964188 117.733055,146.969574 
	C117.588181,147.498596 117.443306,148.027618 117.162117,148.811279 
z"/>
<path fill="#8BA1FD" opacity="1.000000" stroke="none" 
	d="
M36.005463,148.819305 
	C34.121937,147.461121 32.588032,146.103561 30.642115,144.381363 
	C32.788677,142.628326 34.511185,141.221603 36.449299,139.638809 
	C37.895939,140.904785 39.568562,142.368515 41.661064,144.199692 
	C39.451435,146.123734 37.903259,147.471832 36.005463,148.819305 
z"/>
<path fill="#FF3535" opacity="1.000000" stroke="none" 
	d="
M328.863281,143.904205 
	C327.844696,143.156860 326.830902,142.360596 326.808136,141.536926 
	C326.661407,136.227081 326.641998,130.908340 326.815277,125.600159 
	C326.845306,124.680717 327.992310,123.797745 328.623383,122.897919 
	C329.074646,123.798294 329.926331,124.704826 329.912567,125.598061 
	C329.819000,131.681137 329.543274,137.761414 328.863281,143.904205 
z"/>
<path fill="#869CFD" opacity="1.000000" stroke="none" 
	d="
M29.580379,104.421768 
	C30.143589,102.057976 30.977303,99.883667 32.128876,96.880386 
	C34.742138,99.344193 36.227566,100.744667 38.182953,102.588219 
	C36.511890,104.348358 34.996513,105.944519 33.359303,107.668999 
	C32.021252,106.502823 30.936068,105.557037 29.580379,104.421768 
z"/>
<path fill="#7B94FD" opacity="1.000000" stroke="none" 
	d="
M124.404900,38.992119 
	C123.109024,37.603458 122.133705,36.231758 121.174698,34.519547 
	C122.651955,32.877964 124.112900,31.576902 126.246048,29.677206 
	C126.470970,32.874592 132.166763,33.580963 127.816422,37.730309 
	C126.661789,38.364422 125.693619,38.686752 124.404900,38.992119 
z"/>
<path fill="#FF3737" opacity="1.000000" stroke="none" 
	d="
M219.718811,137.932175 
	C219.719986,135.298721 219.538879,133.122238 219.801987,131.000824 
	C219.927261,129.990906 220.898102,129.085876 221.485901,128.133347 
	C221.985123,129.161224 222.850281,130.166687 222.914810,131.221176 
	C223.106796,134.357407 223.135117,137.524078 222.904129,140.654999 
	C222.820511,141.788696 221.821838,142.854874 221.240723,143.951874 
	C220.734161,142.933578 220.095581,141.955856 219.765945,140.883194 
	C219.533279,140.126053 219.719604,139.240158 219.718811,137.932175 
z"/>
<path fill="#1417D2" opacity="1.000000" stroke="none" 
	d="
M117.857315,146.612457 
	C116.999489,146.964188 116.265930,146.958801 115.282997,146.497131 
	C115.226044,141.337723 115.418457,136.634583 116.107307,131.881790 
	C116.923492,131.742966 117.243240,131.653793 117.562988,131.564636 
	C117.784187,135.427612 118.005394,139.290604 118.349297,143.599136 
	C118.308525,144.781570 118.145050,145.518448 117.857315,146.612457 
z"/>
<path fill="#5050DC" opacity="1.000000" stroke="none" 
	d="
M29.715210,65.482025 
	C29.537605,68.650070 29.031548,71.865372 28.337711,75.387054 
	C27.661549,76.106476 27.173162,76.519524 26.355316,76.974052 
	C27.146156,73.186783 28.266457,69.358032 29.715210,65.482025 
z"/>
<path fill="#5050DC" opacity="1.000000" stroke="none" 
	d="
M26.104359,56.300270 
	C27.508657,57.149544 28.946163,58.339180 30.693228,59.591595 
	C31.089882,60.024757 31.176979,60.395142 31.266983,61.044559 
	C29.559116,59.762608 27.848339,58.201622 26.104359,56.300270 
z"/>
<path fill="#2E2FD5" opacity="1.000000" stroke="none" 
	d="
M52.794315,34.882576 
	C53.657166,35.496006 54.520020,36.109432 55.785515,37.056686 
	C56.364731,37.672775 56.611176,37.865833 56.927490,37.969681 
	C56.927490,37.969681 56.961498,38.003494 56.982460,38.355644 
	C57.016659,39.154831 57.029892,39.601868 57.028801,40.046333 
	C57.014481,40.043770 57.030579,40.020626 56.578915,40.013668 
	C55.224094,40.054550 54.320934,40.102394 53.158234,40.001419 
	C52.321960,38.803162 51.745232,37.753727 51.597046,36.268578 
	C52.281830,35.516098 52.538071,35.199337 52.794315,34.882576 
z"/>
<path fill="#2E2FD5" opacity="1.000000" stroke="none" 
	d="
M49.864681,32.050945 
	C50.785995,32.809994 51.707310,33.569038 52.711472,34.605331 
	C52.538071,35.199337 52.281830,35.516098 51.354485,36.084763 
	C49.440987,35.276241 48.198597,34.215824 46.956203,33.155403 
	C47.137245,32.953400 47.318291,32.751396 48.072941,32.272598 
	C49.052593,32.014187 49.458637,32.032566 49.864681,32.050945 
z"/>
<path fill="#4040D8" opacity="1.000000" stroke="none" 
	d="
M49.715538,31.773647 
	C49.458637,32.032566 49.052593,32.014187 48.343231,31.968460 
	C47.066437,31.301554 46.092957,30.661995 45.041332,29.731565 
	C46.497589,30.125912 48.031994,30.811129 49.715538,31.773647 
z"/>
<path fill="#5050DC" opacity="1.000000" stroke="none" 
	d="
M23.529533,51.247437 
	C24.386419,52.358913 25.196632,53.802616 26.027496,55.582973 
	C25.193050,54.472973 24.337955,53.026314 23.529533,51.247437 
z"/>
<path fill="#D7D8F8" opacity="1.000000" stroke="none" 
	d="
M25.447521,76.945511 
	C25.670696,77.486176 25.615021,78.084137 25.295944,78.844955 
	C25.077917,78.339478 25.123293,77.671143 25.447521,76.945511 
z"/>
<path fill="#DEDEF9" opacity="1.000000" stroke="none" 
	d="
M44.255981,147.775848 
	C44.773666,147.774307 45.279831,148.103180 45.811527,148.733414 
	C45.306194,148.725281 44.775330,148.415787 44.255981,147.775848 
z"/>
<path fill="#2729D5" opacity="1.000000" stroke="none" 
	d="
M56.935215,37.727024 
	C56.611176,37.865833 56.364731,37.672775 56.089870,37.172054 
	C56.162868,36.896416 56.334156,36.839233 56.752930,36.892136 
	C57.000420,37.002220 56.942940,37.484367 56.935215,37.727024 
z"/>
<path fill="#1417D2" opacity="1.000000" stroke="none" 
	d="
M132.050064,61.003937 
	C132.572739,62.858456 133.095413,64.712982 133.860657,67.145935 
	C134.328934,69.300972 134.514160,70.884666 134.788467,72.452766 
	C135.414047,76.028656 136.083298,79.596909 136.734787,83.168266 
	C136.386353,83.480103 136.037918,83.791931 134.927551,84.193817 
	C128.932556,84.308723 123.699486,84.333572 118.154640,84.181885 
	C117.194473,83.335060 116.546097,82.664764 115.911865,81.526176 
	C115.947067,75.733650 115.841301,70.403931 116.071129,65.088715 
	C116.135048,63.610653 117.193016,62.175568 117.794930,60.720764 
	C118.515533,60.902439 119.236145,61.084110 119.956749,61.265785 
	C119.956749,66.825432 119.956749,72.385086 119.858505,78.389595 
	C120.551552,79.879906 121.245636,81.715408 122.151817,81.826897 
	C125.221367,82.204544 128.366501,81.937439 131.481827,81.982147 
	C134.501282,82.025459 134.798828,80.563904 133.627060,77.845764 
	C132.420929,72.638321 131.250168,67.815994 130.310028,62.825546 
	C131.043777,62.106262 131.546921,61.555099 132.050064,61.003937 
z"/>
<path fill="#7791FD" opacity="1.000000" stroke="none" 
	d="
M131.145447,118.787910 
	C124.479935,115.349922 124.433304,114.774445 130.634186,110.127838 
	C131.972366,111.567757 132.960175,113.029892 134.127319,114.757469 
	C133.220230,115.937576 132.250458,117.199242 131.145447,118.787910 
z"/>
<path fill="#99A2F3" opacity="1.000000" stroke="none" 
	d="
M118.466431,84.358414 
	C123.699486,84.333572 128.932556,84.308723 134.629883,84.380760 
	C133.517014,84.980675 131.971008,85.737442 130.356461,85.935493 
	C126.655479,86.389503 122.921059,86.570892 118.715401,86.629517 
	C118.309204,85.716843 118.387817,85.037628 118.466431,84.358414 
z"/>
<path fill="#99A2F3" opacity="1.000000" stroke="none" 
	d="
M137.055588,83.112396 
	C136.083298,79.596909 135.414047,76.028656 134.788467,72.452766 
	C134.514160,70.884666 134.328934,69.300972 134.192871,67.299049 
	C134.656082,66.918709 135.029678,66.963684 135.681519,67.058617 
	C136.690308,71.086555 137.537445,75.048637 138.083588,79.051781 
	C138.258072,80.330734 137.634705,81.718536 137.055588,83.112396 
z"/>
<path fill="#2E2FD5" opacity="1.000000" stroke="none" 
	d="
M118.154648,84.181885 
	C118.387817,85.037628 118.309204,85.716843 118.333778,86.725655 
	C118.367027,87.613113 118.297081,88.170967 118.121986,89.137024 
	C118.016838,89.545227 117.683540,89.625542 117.227203,88.995087 
	C116.542442,88.026855 116.314026,87.689079 116.060745,87.426926 
	C116.035889,87.502556 115.877815,87.257103 115.631393,86.990532 
	C115.196304,85.544373 115.007637,84.364792 114.988937,82.975204 
	C115.405182,82.508286 115.651443,82.251373 115.897713,81.994461 
	C116.546097,82.664764 117.194473,83.335060 118.154648,84.181885 
z"/>
<path fill="#F2F3FE" opacity="1.000000" stroke="none" 
	d="
M114.818970,83.185204 
	C115.007637,84.364792 115.196304,85.544373 115.635117,87.036682 
	C115.885277,87.349396 115.813652,87.391426 115.671036,87.923248 
	C115.663437,88.796402 115.798470,89.137733 115.933502,89.479073 
	C115.822227,92.242096 115.710960,95.005119 115.624237,98.222473 
	C115.545937,98.843376 115.452751,99.015167 115.334778,99.711082 
	C115.393646,107.499123 115.486931,114.768272 115.454620,122.339920 
	C115.391113,123.068672 115.453209,123.494904 115.414413,124.360008 
	C115.412643,127.176399 115.511757,129.553925 115.610870,131.931458 
	C115.418457,136.634583 115.226044,141.337723 114.916260,146.487808 
	C112.857338,146.933929 110.915779,146.933105 108.496994,146.512421 
	C108.671074,144.890778 109.673157,143.748978 109.891350,142.473114 
	C110.217476,140.566086 110.277786,138.510849 109.921219,136.618515 
	C109.559364,134.698074 107.951668,132.906738 107.927254,131.045258 
	C107.748352,117.405785 107.828918,103.762901 107.830452,90.121086 
	C107.831261,82.981445 107.833817,82.981445 114.818970,83.185204 
z"/>
<path fill="#1417D2" opacity="1.000000" stroke="none" 
	d="
M115.580223,122.037415 
	C115.486931,114.768272 115.393646,107.499123 115.720993,99.735954 
	C116.164680,98.987030 116.187721,98.732132 116.210770,98.477226 
	C116.833733,99.995064 117.971031,101.504730 117.995308,103.032089 
	C118.141411,112.223724 118.032242,121.419418 117.626251,130.501892 
	C117.158211,128.258026 117.072464,126.126030 116.953003,123.660675 
	C116.472939,122.897346 116.026581,122.467377 115.580223,122.037415 
z"/>
<path fill="#2828D3" opacity="1.000000" stroke="none" 
	d="
M116.986717,123.994034 
	C117.072464,126.126030 117.158211,128.258026 117.361191,130.940475 
	C117.478416,131.490936 117.513641,131.512131 117.538315,131.538391 
	C117.243240,131.653793 116.923492,131.742966 116.107307,131.881790 
	C115.511757,129.553925 115.412643,127.176399 115.782669,124.387642 
	C116.496780,123.982285 116.741745,123.988159 116.986717,123.994034 
z"/>
<path fill="#99A2F3" opacity="1.000000" stroke="none" 
	d="
M116.187775,98.500015 
	C116.187721,98.732132 116.164680,98.987030 115.755417,99.217056 
	C115.452751,99.015167 115.545937,98.843376 115.787766,98.609238 
	C115.926758,98.541672 116.164772,98.522812 116.187775,98.500015 
z"/>
<path fill="#1417D2" opacity="1.000000" stroke="none" 
	d="
M116.314819,89.695557 
	C115.798470,89.137733 115.663437,88.796402 115.740189,87.919708 
	C115.951973,87.384346 116.085602,87.351303 116.085602,87.351303 
	C116.314026,87.689079 116.542442,88.026855 117.093430,88.887894 
	C117.176048,89.578125 116.936089,89.745087 116.314819,89.695557 
z"/>
<path fill="#6A85FB" opacity="1.000000" stroke="none" 
	d="
M114.988937,82.975204 
	C107.833817,82.981445 107.831261,82.981445 107.830452,90.121086 
	C107.828918,103.762901 107.748352,117.405785 107.927254,131.045258 
	C107.951668,132.906738 109.559364,134.698074 109.921219,136.618515 
	C110.277786,138.510849 110.217476,140.566086 109.891350,142.473114 
	C109.673157,143.748978 108.671074,144.890778 108.081924,146.470551 
	C107.307457,146.879761 106.470833,146.911011 105.258743,146.493805 
	C104.381958,145.108444 104.109909,143.868027 103.340103,143.286606 
	C99.778328,140.596390 99.835663,138.830658 103.283997,135.968613 
	C104.307175,135.119400 104.976707,133.265350 104.988167,131.865036 
	C105.109055,117.094666 105.125679,102.322304 104.971924,87.552551 
	C104.955940,86.017403 103.656654,84.495598 102.882637,82.563339 
	C102.433060,79.390160 103.395554,75.927773 98.628067,75.842911 
	C88.231239,75.657845 77.840271,75.144592 67.443443,74.958656 
	C60.645950,74.837090 59.731316,75.981972 60.113014,83.158478 
	C59.956753,83.733772 59.888432,83.961845 59.497475,84.113556 
	C58.737553,83.999184 58.300266,83.961182 57.487869,83.934715 
	C56.359558,84.010246 55.606354,84.074234 54.870808,84.075134 
	C54.888462,84.012032 54.893227,84.142960 54.785133,83.773209 
	C52.247608,82.985291 49.818176,82.567116 47.388744,82.148941 
	C47.007912,75.833023 46.371010,69.513832 46.451843,63.203827 
	C46.469009,61.863995 49.219326,60.659733 50.500599,59.207859 
	C51.838608,57.691681 52.923355,55.951996 53.973068,54.028049 
	C53.827316,53.746082 53.823364,53.936146 54.187817,53.923668 
	C55.030659,52.137787 59.125259,50.565746 54.673836,48.377354 
	C54.383881,47.852844 54.512787,47.603642 55.253143,47.464977 
	C56.092815,44.973949 56.561695,42.497288 57.030579,40.020626 
	C57.030579,40.020626 57.014481,40.043770 57.341293,39.981323 
	C58.106075,39.277763 58.544048,38.636650 58.982021,37.995537 
	C59.722012,37.977859 60.461998,37.960182 61.675167,38.296535 
	C64.866173,41.622021 67.106934,45.345703 70.389107,47.427326 
	C81.296501,54.345005 96.887833,49.138771 100.717316,37.950859 
	C106.700073,40.389126 112.282417,42.910511 118.005859,45.055386 
	C123.639137,47.166477 128.001282,50.019123 128.308319,56.818554 
	C128.402267,58.899342 129.461960,60.936523 130.079407,62.993671 
	C131.250168,67.815994 132.420929,72.638321 133.189331,77.789017 
	C128.510239,78.059830 124.233498,78.002281 119.956749,77.944733 
	C119.956749,72.385086 119.956749,66.825432 119.956749,61.265785 
	C119.236145,61.084110 118.515533,60.902439 117.794930,60.720764 
	C117.193016,62.175568 116.135048,63.610653 116.071129,65.088715 
	C115.841301,70.403931 115.947067,75.733650 115.911865,81.526176 
	C115.651443,82.251373 115.405182,82.508286 114.988937,82.975204 
M98.148102,65.427742 
	C97.854012,69.226982 99.788170,71.847572 103.352005,71.685028 
	C104.988663,71.610382 107.232880,68.976097 107.859138,67.063065 
	C108.494514,65.122154 109.145706,61.510960 105.339462,61.367287 
	C102.699661,61.267635 98.585312,59.283703 98.148102,65.427742 
M55.212852,68.041893 
	C56.514389,67.425110 58.231895,67.125237 59.007248,66.107559 
	C59.884117,64.956642 59.915165,63.161301 60.314014,61.646179 
	C58.640308,62.212597 56.660320,62.417633 55.406887,63.479942 
	C54.645649,64.125107 55.007023,66.094864 55.212852,68.041893 
z"/>
<path fill="#ECEDFD" opacity="1.000000" stroke="none" 
	d="
M54.882355,47.479343 
	C54.512787,47.603642 54.383881,47.852844 54.258217,48.553154 
	C53.954987,50.564957 53.889175,52.250549 53.823364,53.936146 
	C53.823364,53.936146 53.827316,53.746082 53.761650,53.679192 
	C52.805401,54.031868 51.624081,54.218010 51.070171,54.907902 
	C46.603825,60.470718 40.403088,60.114571 34.291466,59.856747 
	C33.500053,59.823357 32.763187,58.496811 31.636366,57.576981 
	C22.815722,49.602806 25.288546,38.722683 31.452660,34.382412 
	C36.169918,31.060896 41.130058,31.821680 46.578529,33.035290 
	C48.198597,34.215824 49.440987,35.276241 50.925941,36.520477 
	C51.745232,37.753727 52.321960,38.803162 53.186001,40.358074 
	C53.942993,43.068817 54.412674,45.274082 54.882355,47.479343 
M35.247608,44.694714 
	C36.769962,44.931824 38.292313,45.168930 40.542774,45.519444 
	C39.150078,47.039955 38.420078,47.836945 37.578846,48.755383 
	C39.589512,49.071426 41.095367,49.308125 42.886887,49.589722 
	C42.007484,50.575356 41.497139,51.147350 40.848671,51.874149 
	C43.697380,52.247150 46.095425,52.561142 48.869205,52.924332 
	C48.624203,44.898006 43.204712,41.086731 37.629261,37.219913 
	C36.050919,38.309803 34.404713,39.446556 33.340111,40.181690 
	C33.855728,41.904896 34.232765,43.164959 35.247608,44.694714 
z"/>
<path fill="#F4F6FF" opacity="1.000000" stroke="none" 
	d="
M53.537239,147.950668 
	C52.510529,147.893890 51.483818,147.837112 50.265091,147.797058 
	C49.147240,146.030182 47.432613,144.253479 47.416885,142.461868 
	C47.249180,123.354149 47.350712,104.244064 47.864151,84.595917 
	C50.531086,84.085785 52.712158,84.114372 54.893227,84.142960 
	C54.893227,84.142960 54.888462,84.012032 54.849846,84.529854 
	C54.817181,103.774170 54.866528,122.500885 54.772038,141.226868 
	C54.760723,143.470154 53.967857,145.709503 53.537239,147.950668 
z"/>
<path fill="#E9EBFD" opacity="1.000000" stroke="none" 
	d="
M28.849270,78.375786 
	C33.326183,78.054451 37.589348,78.053467 42.292145,78.133698 
	C41.053440,84.898499 35.829472,80.004120 32.443127,81.192024 
	C31.408857,81.554848 27.532370,83.056755 28.849270,78.375786 
z"/>
<path fill="#94A7FD" opacity="1.000000" stroke="none" 
	d="
M54.785133,83.773209 
	C52.712158,84.114372 50.531086,84.085785 47.961212,84.154938 
	C47.459641,83.788666 47.346870,83.324669 47.311424,82.504807 
	C49.818176,82.567116 52.247608,82.985291 54.785133,83.773209 
z"/>
<path fill="#F3F5FF" opacity="1.000000" stroke="none" 
	d="
M74.452156,150.025940 
	C73.510201,149.857941 72.568245,149.689941 71.678925,149.091293 
	C71.518944,148.381470 71.306328,148.102280 71.003372,147.426346 
	C70.660507,145.070389 70.195976,143.111938 70.189087,141.151871 
	C70.135384,125.854797 70.169640,110.557396 70.596375,95.119446 
	C73.947006,95.068047 76.877975,95.157303 79.792206,95.698257 
	C79.768349,112.989311 79.761246,129.828659 79.332375,146.748962 
	C74.021965,147.058334 74.021965,147.058334 74.452156,150.025940 
z"/>
<path fill="#F7F8FE" opacity="1.000000" stroke="none" 
	d="
M57.862980,83.923180 
	C58.300266,83.961182 58.737553,83.999184 59.506775,84.523041 
	C60.035915,87.336655 60.233116,89.664413 60.537220,92.371140 
	C62.748230,93.526566 64.852333,94.303024 66.971725,95.542419 
	C67.004753,113.013832 67.022499,130.022324 66.932663,147.280731 
	C66.711494,147.672073 66.597908,147.813492 66.484329,147.954910 
	C64.401978,147.906860 62.319630,147.858810 59.630981,147.514648 
	C58.668564,145.136032 58.014851,143.055252 58.002769,140.970734 
	C57.892590,121.955254 57.894096,102.939125 57.862980,83.923180 
z"/>
<path fill="#FEFEFF" opacity="1.000000" stroke="none" 
	d="
M91.854599,146.804886 
	C91.523880,146.914047 91.193153,147.023193 90.605270,147.176178 
	C88.619820,147.468338 86.891548,147.716705 84.594070,147.746948 
	C83.704506,147.321716 83.384132,147.114609 83.032120,146.446381 
	C83.014000,129.013641 83.027512,112.042023 83.479774,94.985291 
	C86.590408,94.969498 89.262283,95.038818 91.944496,95.570114 
	C91.921417,112.956352 91.888008,129.880615 91.854599,146.804886 
z"/>
<path fill="#94A7FD" opacity="1.000000" stroke="none" 
	d="
M57.487869,83.934715 
	C57.894096,102.939125 57.892590,121.955254 58.002769,140.970734 
	C58.014851,143.055252 58.668564,145.136032 59.245964,147.585602 
	C59.321289,148.074219 59.175331,148.195801 58.277733,148.130844 
	C56.497025,147.965515 55.467960,147.986725 54.438896,148.007919 
	C54.281246,148.114914 54.123600,148.221893 53.751595,148.139771 
	C53.967857,145.709503 54.760723,143.470154 54.772038,141.226868 
	C54.866528,122.500885 54.817181,103.774170 54.832191,84.592957 
	C55.606354,84.074234 56.359558,84.010246 57.487869,83.934715 
z"/>
<path fill="#2729D5" opacity="1.000000" stroke="none" 
	d="
M83.063759,146.907501 
	C83.384132,147.114609 83.704506,147.321716 84.215881,147.743958 
	C82.227150,152.098679 78.382973,149.265396 74.933876,150.065643 
	C74.021965,147.058334 74.021965,147.058334 79.743607,146.815308 
	C81.405655,146.836319 82.234703,146.871918 83.063759,146.907501 
z"/>
<path fill="#2729D5" opacity="1.000000" stroke="none" 
	d="
M66.368271,148.486511 
	C66.597908,147.813492 66.711494,147.672073 67.290237,147.262573 
	C68.868172,147.270721 69.980949,147.546906 71.093719,147.823090 
	C71.306328,148.102280 71.518944,148.381470 71.392914,149.063568 
	C69.453590,149.317047 67.852905,149.167587 66.368271,148.486511 
z"/>
<path fill="#2729D5" opacity="1.000000" stroke="none" 
	d="
M54.389648,148.595032 
	C55.467960,147.986725 56.497025,147.965515 58.041885,147.970963 
	C57.151920,148.392456 55.746159,148.787292 54.389648,148.595032 
z"/>
<path fill="#F5F1FF" opacity="1.000000" stroke="none" 
	d="
M281.512329,101.070908 
	C281.810974,97.855286 281.809448,95.001244 282.336761,92.248505 
	C282.565674,91.053505 283.698914,89.754234 284.782776,89.116745 
	C285.330444,88.794617 286.683197,89.841278 287.671936,90.269051 
	C287.110626,91.473022 286.661102,92.748215 285.953369,93.858871 
	C285.365479,94.781479 284.473816,95.510513 283.948364,96.076057 
	C285.423645,97.988678 286.664948,99.597939 287.906250,101.207207 
	C286.408997,102.114861 284.969666,103.171562 283.362457,103.796486 
	C283.063507,103.912712 282.089355,102.292427 281.512329,101.070908 
z"/>
<path fill="#F7F4FF" opacity="1.000000" stroke="none" 
	d="
M194.108856,91.156822 
	C195.040344,89.878464 195.867386,88.873573 196.914810,88.224159 
	C197.110397,88.102905 198.877045,89.741959 198.751343,90.000061 
	C197.846985,91.856712 196.641495,93.566689 195.531555,95.323204 
	C195.124146,95.133347 194.716736,94.943497 194.309341,94.753639 
	C194.233078,93.686806 194.156830,92.619965 194.108856,91.156822 
z"/>
<path fill="#2329D7" opacity="1.000000" stroke="none" 
	d="
M130.310028,62.825546 
	C129.461960,60.936523 128.402267,58.899342 128.308319,56.818554 
	C128.001282,50.019123 123.639137,47.166477 118.005859,45.055386 
	C112.282417,42.910511 106.700073,40.389126 100.601845,37.765312 
	C100.147751,37.497997 99.950546,37.109753 99.950546,37.109753 
	C100.215988,36.600803 100.481430,36.091854 100.864670,35.320187 
	C107.938332,37.628101 114.894196,40.198730 122.233826,42.826736 
	C127.837273,45.320904 130.907181,49.321182 131.348907,55.753395 
	C131.743439,57.392082 132.301315,58.391491 132.859177,59.390896 
	C132.695663,59.819096 132.532150,60.247295 132.209351,60.839718 
	C131.546921,61.555099 131.043777,62.106262 130.310028,62.825546 
z"/>
<path fill="#BBC8FD" opacity="1.000000" stroke="none" 
	d="
M132.902023,58.973190 
	C132.301315,58.391491 131.743439,57.392082 131.367813,56.113411 
	C132.014984,56.741261 132.479935,57.648369 132.902023,58.973190 
z"/>
<path fill="#FFFAFA" opacity="1.000000" stroke="none" 
	d="
M177.092270,141.125977 
	C175.564453,140.221512 173.525528,139.368561 173.507141,138.474075 
	C173.461212,136.240265 173.785843,133.561111 175.064743,131.920456 
	C175.714966,131.086304 180.062454,131.537399 180.437958,132.404160 
	C181.337494,134.480652 181.131226,137.182709 180.800644,139.552673 
	C180.706406,140.228271 178.654861,140.630844 177.092270,141.125977 
z"/>
<path fill="#DDE0FB" opacity="1.000000" stroke="none" 
	d="
M99.577850,37.096798 
	C99.950546,37.109753 100.147751,37.497997 100.263229,37.683548 
	C96.887833,49.138771 81.296501,54.345005 70.389107,47.427326 
	C67.106934,45.345703 64.866173,41.622021 62.046082,38.308174 
	C63.426445,38.219872 65.696510,37.947712 66.271645,38.808289 
	C73.099129,49.024235 90.010994,48.930325 96.417000,38.453728 
	C96.873146,37.707737 98.254181,37.527267 99.577850,37.096798 
z"/>
<path fill="#3134D8" opacity="1.000000" stroke="none" 
	d="
M58.651077,38.012131 
	C58.544048,38.636650 58.106075,39.277763 57.355614,39.983887 
	C57.029892,39.601868 57.016659,39.154831 56.998703,38.373283 
	C57.436031,38.035427 57.878086,38.032078 58.651077,38.012131 
z"/>
<path fill="#FFFAFA" opacity="1.000000" stroke="none" 
	d="
M273.221130,134.431213 
	C274.687653,131.174362 277.246796,129.750397 279.694885,131.584305 
	C281.211884,132.720734 282.055420,135.845215 281.779907,137.885345 
	C281.608978,139.150803 278.756104,140.973892 277.143707,140.937180 
	C273.561981,140.855637 272.890961,137.919754 273.221130,134.431213 
z"/>
<path fill="#FFE5E5" opacity="1.000000" stroke="none" 
	d="
M316.640350,130.899475 
	C318.061401,131.840103 319.076416,132.714844 321.086090,134.446793 
	C317.124542,134.446793 314.621674,134.446793 312.118774,134.446793 
	C311.904236,133.981430 311.689728,133.516068 311.475189,133.050705 
	C313.061554,132.311661 314.647949,131.572617 316.640350,130.899475 
z"/>
<path fill="#FFEBEB" opacity="1.000000" stroke="none" 
	d="
M160.398056,134.740372 
	C159.092941,136.037033 157.630600,136.967133 156.168259,137.897247 
	C155.801361,137.486542 155.434464,137.075836 155.067566,136.665146 
	C155.865402,134.297745 156.663239,131.930328 157.964584,128.068848 
	C159.021484,130.996368 159.631149,132.685089 160.398056,134.740372 
z"/>
<path fill="#FFF8F8" opacity="1.000000" stroke="none" 
	d="
M259.737122,126.872772 
	C261.407043,128.032089 262.638641,129.188095 263.870209,130.344101 
	C261.941833,131.518707 260.013458,132.693329 258.085114,133.867935 
	C257.442444,130.606934 254.877686,127.659355 259.737122,126.872772 
z"/>
<path fill="#F1F4FF" opacity="1.000000" stroke="none" 
	d="
M102.952805,82.967606 
	C103.656654,84.495598 104.955940,86.017403 104.971924,87.552551 
	C105.125679,102.322304 105.109055,117.094666 104.988167,131.865036 
	C104.976707,133.265350 104.307175,135.119400 103.283997,135.968613 
	C99.835663,138.830658 99.778328,140.596390 103.340103,143.286606 
	C104.109909,143.868027 104.381958,145.108444 104.845139,146.420746 
	C101.895813,146.827499 98.984619,146.858856 95.639877,146.342499 
	C95.183647,128.947327 95.160973,112.099869 95.515625,95.116943 
	C98.565025,94.589905 102.028549,95.450150 102.365448,90.697708 
	C102.539970,88.198433 102.499573,86.026634 102.602356,83.644028 
	C102.814644,83.278023 102.883728,83.122810 102.952805,82.967606 
z"/>
<path fill="#8A9FFD" opacity="1.000000" stroke="none" 
	d="
M95.138298,95.252411 
	C95.160973,112.099869 95.183647,128.947327 95.214630,146.241943 
	C94.379913,146.762634 93.536888,146.836151 92.274231,146.857285 
	C91.888008,129.880615 91.921417,112.956352 92.342453,95.496895 
	C93.532822,95.058601 94.335564,95.155502 95.138298,95.252411 
z"/>
<path fill="#2729D5" opacity="1.000000" stroke="none" 
	d="
M55.253143,47.464977 
	C54.412674,45.274082 53.942993,43.068817 53.445545,40.506897 
	C54.320934,40.102394 55.224094,40.054550 56.578915,40.013668 
	C56.561695,42.497288 56.092815,44.973949 55.253143,47.464977 
z"/>
<path fill="#F2F3FE" opacity="1.000000" stroke="none" 
	d="
M119.858505,78.389595 
	C124.233498,78.002281 128.510239,78.059830 133.224701,78.174133 
	C134.798828,80.563904 134.501282,82.025459 131.481827,81.982147 
	C128.366501,81.937439 125.221367,82.204544 122.151817,81.826897 
	C121.245636,81.715408 120.551552,79.879906 119.858505,78.389595 
z"/>
<path fill="#99A2F3" opacity="1.000000" stroke="none" 
	d="
M116.060745,87.426926 
	C116.085602,87.351303 115.951973,87.384346 115.882812,87.387886 
	C115.813652,87.391426 115.885277,87.349396 115.881546,87.303253 
	C115.877815,87.257103 116.035889,87.502556 116.060745,87.426926 
z"/>
<path fill="#2E2FD5" opacity="1.000000" stroke="none" 
	d="
M116.953003,123.660675 
	C116.741745,123.988159 116.496780,123.982285 115.883560,123.948776 
	C115.453209,123.494904 115.391113,123.068672 115.454620,122.339920 
	C116.026581,122.467377 116.472939,122.897346 116.953003,123.660675 
z"/>
<path fill="#191CD3" opacity="1.000000" stroke="none" 
	d="
M95.515625,95.116943 
	C94.335564,95.155502 93.532822,95.058601 92.332123,95.034920 
	C89.262283,95.038818 86.590408,94.969498 83.076370,94.932632 
	C81.425797,95.058907 80.617371,95.152733 79.808952,95.246559 
	C76.877975,95.157303 73.947006,95.068047 70.200516,95.024429 
	C68.575478,95.073212 67.765961,95.076355 66.956436,95.079491 
	C64.852333,94.303024 62.748230,93.526566 61.022560,92.354225 
	C61.713543,91.875488 62.026096,91.792641 62.784367,91.698776 
	C69.101997,91.716644 74.973907,91.745544 81.320175,91.825745 
	C87.388916,91.877045 92.983299,91.877045 99.124725,91.877045 
	C99.124725,88.020325 99.006058,84.895195 99.159798,81.783516 
	C99.299408,78.957695 98.143326,77.957047 95.363937,78.049057 
	C90.551437,78.208351 85.730598,78.115417 80.453003,78.075859 
	C74.159332,78.023438 68.325905,78.023438 62.400143,78.023438 
	C62.211029,80.105637 62.080524,81.542572 61.655449,82.986473 
	C60.974239,82.932709 60.587597,82.871979 60.200951,82.811241 
	C59.731316,75.981972 60.645950,74.837090 67.443443,74.958656 
	C77.840271,75.144592 88.231239,75.657845 98.628067,75.842911 
	C103.395554,75.927773 102.433060,79.390160 102.882637,82.563339 
	C102.883728,83.122810 102.814644,83.278023 102.282669,83.793915 
	C101.930031,86.444786 102.040276,88.734978 102.150513,91.025169 
	C102.028549,95.450150 98.565025,94.589905 95.515625,95.116943 
z"/>
<path fill="#E6EBFF" opacity="1.000000" stroke="none" 
	d="
M98.152008,65.017410 
	C98.585312,59.283703 102.699661,61.267635 105.339462,61.367287 
	C109.145706,61.510960 108.494514,65.122154 107.859138,67.063065 
	C107.232880,68.976097 104.988663,71.610382 103.352005,71.685028 
	C99.788170,71.847572 97.854012,69.226982 98.152008,65.017410 
z"/>
<path fill="#D8E0FF" opacity="1.000000" stroke="none" 
	d="
M55.038471,67.755737 
	C55.007023,66.094864 54.645649,64.125107 55.406887,63.479942 
	C56.660320,62.417633 58.640308,62.212597 60.314014,61.646179 
	C59.915165,63.161301 59.884117,64.956642 59.007248,66.107559 
	C58.231895,67.125237 56.514389,67.425110 55.038471,67.755737 
z"/>
<path fill="#5355DF" opacity="1.000000" stroke="none" 
	d="
M62.338646,91.709801 
	C62.026096,91.792641 61.713543,91.875488 60.915649,91.975258 
	C60.233116,89.664413 60.035915,87.336655 59.829414,84.599403 
	C59.888432,83.961845 59.956753,83.733772 60.113014,83.158478 
	C60.587597,82.871979 60.974239,82.932709 61.726704,83.424545 
	C62.174564,86.473701 62.256607,89.091751 62.338646,91.709801 
z"/>
<path fill="#2729D5" opacity="1.000000" stroke="none" 
	d="
M54.187817,53.923668 
	C53.889175,52.250549 53.954987,50.564957 54.436417,48.703560 
	C59.125259,50.565746 55.030659,52.137787 54.187817,53.923668 
z"/>
<path fill="#7B94FD" opacity="1.000000" stroke="none" 
	d="
M34.928703,44.559868 
	C34.232765,43.164959 33.855728,41.904896 33.340111,40.181690 
	C34.404713,39.446556 36.050919,38.309803 37.629261,37.219913 
	C43.204712,41.086731 48.624203,44.898006 48.869205,52.924332 
	C46.095425,52.561142 43.697380,52.247150 40.848671,51.874149 
	C41.497139,51.147350 42.007484,50.575356 42.886887,49.589722 
	C41.095367,49.308125 39.589512,49.071426 37.578846,48.755383 
	C38.420078,47.836945 39.150078,47.039955 40.542774,45.519444 
	C38.292313,45.168930 36.769962,44.931824 34.928703,44.559868 
z"/>
<path fill="#8AA0FD" opacity="1.000000" stroke="none" 
	d="
M66.971725,95.542419 
	C67.765961,95.076355 68.575478,95.073212 69.780869,95.165085 
	C70.169640,110.557396 70.135384,125.854797 70.189087,141.151871 
	C70.195976,143.111938 70.660507,145.070389 71.003372,147.426331 
	C69.980949,147.546906 68.868172,147.270721 67.397820,147.012665 
	C67.022499,130.022324 67.004753,113.013832 66.971725,95.542419 
z"/>
<path fill="#8098FD" opacity="1.000000" stroke="none" 
	d="
M79.792206,95.698257 
	C80.617371,95.152733 81.425797,95.058907 82.637619,95.017738 
	C83.027512,112.042023 83.014000,129.013641 83.032120,146.446381 
	C82.234703,146.871918 81.405655,146.836319 80.165375,146.734375 
	C79.761246,129.828659 79.768349,112.989311 79.792206,95.698257 
z"/>
<path fill="#5355DF" opacity="1.000000" stroke="none" 
	d="
M102.365448,90.697708 
	C102.040276,88.734978 101.930031,86.444786 102.139481,84.004715 
	C102.499573,86.026634 102.539970,88.198433 102.365448,90.697708 
z"/>
<path fill="#F0F0FC" opacity="1.000000" stroke="none" 
	d="
M62.784367,91.698776 
	C62.256607,89.091751 62.174564,86.473701 62.021271,83.417580 
	C62.080524,81.542572 62.211029,80.105637 62.400143,78.023438 
	C68.325905,78.023438 74.159332,78.023438 80.527191,78.525368 
	C80.989685,83.276344 80.917755,87.525398 80.845818,91.774445 
	C74.973907,91.745544 69.101997,91.716644 62.784367,91.698776 
z"/>
<path fill="#6883FB" opacity="1.000000" stroke="none" 
	d="
M81.320175,91.825745 
	C80.917755,87.525398 80.989685,83.276344 80.987442,78.577789 
	C85.730598,78.115417 90.551437,78.208351 95.363937,78.049057 
	C98.143326,77.957047 99.299408,78.957695 99.159798,81.783516 
	C99.006058,84.895195 99.124725,88.020325 99.124725,91.877045 
	C92.983299,91.877045 87.388916,91.877045 81.320175,91.825745 
z"/>
</svg>