<svg version="1.1" id="Layer_1" xmlns="http://www.w3.org/2000/svg" xmlns:xlink="http://www.w3.org/1999/xlink" x="0px" y="0px"
	 width="100%" viewBox="0 0 500 500" enable-background="new 0 0 500 500" xml:space="preserve">
<path fill="#1E89E4" opacity="1.000000" stroke="none" 
	d="
M501.000000,131.000000 
	C501.000000,210.687561 501.000000,290.375122 500.655640,370.717651 
	C499.936859,373.159119 499.472809,374.932190 499.202057,376.734283 
	C496.549652,394.387634 490.769775,410.947357 482.046600,426.516449 
	C473.402588,441.944183 462.081848,455.150055 448.691010,466.922821 
	C448.115356,467.329651 447.783325,467.683441 447.157898,468.165405 
	C446.237671,468.859955 445.610870,469.426422 444.728210,470.046448 
	C444.266022,470.367523 444.059723,470.634979 443.633759,470.977661 
	C443.126404,471.201172 442.918793,471.424103 442.508850,471.768860 
	C441.824097,472.204010 441.421814,472.591980 440.998474,472.973511 
	C440.977386,472.967102 440.976532,473.011169 440.668518,473.073730 
	C439.739929,473.681976 439.119324,474.227600 438.346680,474.809875 
	C438.194672,474.846497 438.003326,475.093842 437.755310,475.134827 
	C437.313171,475.437439 437.119080,475.699036 436.953430,475.977905 
	C436.981842,475.995209 436.956146,475.933777 436.625732,475.998199 
	C435.027588,476.966644 433.759857,477.870697 432.342468,478.799561 
	C432.192810,478.824371 432.003693,479.061646 431.676453,479.124573 
	C430.060394,480.024048 428.771576,480.860596 427.324463,481.734497 
	C427.166199,481.771851 426.959595,482.023010 426.689667,482.058105 
	C426.161346,482.336578 425.902924,482.579926 425.457306,482.857117 
	C425.270111,482.890930 424.986328,483.144379 424.636383,483.193604 
	C417.946777,486.194366 411.607086,489.145935 405.197845,492.070068 
	C405.128296,492.042633 405.050781,492.170471 404.676514,492.190002 
	C400.595062,493.474152 396.887848,494.738770 393.108124,495.971466 
	C393.035614,495.939545 392.931122,496.058655 392.551270,496.029541 
	C389.828064,496.638702 387.484711,497.276947 384.759674,498.009247 
	C381.585297,499.068878 378.792664,500.034424 376.000000,501.000000 
	C293.312439,501.000000 210.624878,501.000000 127.355316,500.600128 
	C115.766998,498.557434 105.240044,495.578430 94.864632,491.297485 
	C50.018780,472.793915 20.487047,440.636322 6.579724,394.166656 
	C4.580405,387.486176 2.853160,380.724243 1.000000,374.000000 
	C1.000000,292.979095 1.000000,211.958206 1.355718,130.312897 
	C2.064505,128.239914 2.522061,126.808006 2.755612,125.340431 
	C12.966061,61.180656 61.159119,13.083334 125.607872,2.687921 
	C127.123245,2.443496 128.538208,1.576569 130.000000,0.999999 
	C209.687561,1.000000 289.375122,1.000000 369.734924,1.340070 
	C372.535461,2.052792 374.654968,2.488150 376.793365,2.788973 
	C438.955231,11.533646 490.569489,63.116684 499.220306,125.086136 
	C499.501556,127.100983 500.393005,129.030640 501.000000,131.000000 
M88.405930,353.910278 
	C82.487381,369.020508 76.568840,384.130768 70.489655,399.651123 
	C170.067581,399.651123 268.727539,399.651123 367.461304,399.651123 
	C367.461304,398.726501 367.601318,398.192047 367.440979,397.772461 
	C362.567505,385.021423 357.761688,372.242157 352.618805,359.600098 
	C352.093201,358.307983 349.549591,357.197449 347.889954,357.119446 
	C341.572632,356.822662 335.225464,356.785889 328.906128,357.050293 
	C325.250061,357.203278 323.809814,356.194763 324.008118,352.340057 
	C324.298737,346.690796 324.109253,341.014862 324.062622,335.350769 
	C324.014160,329.465759 319.565521,326.896057 314.474182,329.806885 
	C308.310242,333.331024 302.173889,336.903412 295.635376,340.680328 
	C284.629913,321.541412 273.964233,302.993439 263.062378,284.034729 
	C270.837830,279.464813 278.093872,275.200165 285.349915,270.935516 
	C285.129517,270.373260 284.909088,269.811035 284.688690,269.248779 
	C282.954315,269.138306 281.219971,268.931824 279.485565,268.931305 
	C228.672424,268.916504 177.859070,268.984955 127.046532,268.811188 
	C122.754845,268.796539 120.981003,270.330200 119.538368,274.077820 
	C109.369759,300.493866 99.007103,326.835175 88.405930,353.910278 
M231.464310,102.923462 
	C199.904587,97.896729 169.779938,112.862801 154.860962,140.980377 
	C140.402481,168.230057 144.994919,201.865097 166.260101,224.468170 
	C187.141251,246.662979 218.381775,253.479126 247.016129,242.087738 
	C274.239563,231.257614 292.215179,204.218857 292.075806,174.309326 
	C291.912506,139.260193 268.254303,111.036247 231.464310,102.923462 
M283.736755,242.935730 
	C282.103180,245.018585 282.641510,246.393356 284.931763,247.624084 
	C288.889923,249.751175 292.645905,252.261749 296.641327,254.309830 
	C299.490936,255.770523 300.017639,257.628143 299.697388,260.733490 
	C299.223297,265.330444 299.268219,270.050842 299.745361,274.650940 
	C300.054321,277.629425 299.306732,279.262909 296.758057,280.647278 
	C291.855682,283.310089 287.086426,286.217987 282.047668,289.148926 
	C288.523193,300.287292 294.586975,310.717407 300.822113,321.442261 
	C306.365051,318.316956 311.185242,315.366608 316.241516,312.900330 
	C317.626801,312.224640 319.985626,312.472992 321.438721,313.206482 
	C326.024567,315.521454 330.507599,318.095215 334.782135,320.941681 
	C336.256927,321.923767 337.777161,323.927673 337.933533,325.591095 
	C338.368317,330.215149 337.935120,334.915375 338.216492,339.562988 
	C338.289978,340.776642 339.700623,342.910156 340.530273,342.926392 
	C351.975677,343.150146 363.426910,343.077484 375.600464,343.077484 
	C375.600464,336.911804 375.361145,331.273346 375.747772,325.678192 
	C375.862274,324.021454 377.400391,321.975922 378.875549,320.993378 
	C383.011292,318.238647 387.659912,316.234650 391.700836,313.363892 
	C394.187195,311.597534 395.913116,311.579193 398.364380,313.102295 
	C402.974365,315.966766 407.766083,318.538727 412.931458,321.488861 
	C419.267944,310.535706 425.312286,300.087616 431.657013,289.120239 
	C427.657166,286.797058 424.243622,284.397705 420.501282,282.741241 
	C415.260193,280.421356 412.829102,277.259491 414.146088,271.207611 
	C414.867889,267.890411 414.453827,264.209381 413.960114,260.777557 
	C413.478119,257.427063 414.562805,255.554916 417.476044,254.025406 
	C422.250031,251.518906 426.844543,248.670685 431.705658,245.856049 
	C425.185822,234.667725 419.109802,224.241013 412.885834,213.560440 
	C407.621063,216.585602 402.955292,219.149292 398.416962,221.921570 
	C395.986908,223.405991 394.163513,223.395020 391.682831,221.633362 
	C387.771271,218.855545 383.539856,216.404297 379.158691,214.456100 
	C376.352539,213.208267 375.464294,211.628204 375.528839,208.799240 
	C375.653137,203.352371 375.565063,197.900650 375.565063,191.921112 
	C363.531097,191.921112 352.238251,191.831802 340.952759,192.079163 
	C339.978516,192.100494 338.338776,194.291412 338.235413,195.573441 
	C337.888641,199.876785 337.936584,204.232880 338.148804,208.553284 
	C338.299774,211.626495 337.289307,213.288315 334.355896,214.599152 
	C330.130859,216.487122 326.040985,218.836121 322.264282,221.511795 
	C319.846008,223.225037 318.035828,223.495926 315.531036,221.982788 
	C310.865143,219.164215 306.051666,216.589951 300.805695,213.635880 
	C295.092773,223.427231 289.580597,232.874496 283.736755,242.935730 
z"/>
<path fill="#F4F6F7" opacity="1.000000" stroke="none" 
	d="
M129.531342,0.999999 
	C128.538208,1.576569 127.123245,2.443496 125.607872,2.687921 
	C61.159119,13.083334 12.966061,61.180656 2.755612,125.340431 
	C2.522061,126.808006 2.064505,128.239914 1.355718,129.844238 
	C1.000000,87.073021 1.000000,44.146034 1.000000,1.000000 
	C43.687313,1.000000 86.375000,1.000000 129.531342,0.999999 
z"/>
<path fill="#F4F6F7" opacity="1.000000" stroke="none" 
	d="
M501.000000,130.531342 
	C500.393005,129.030640 499.501556,127.100983 499.220306,125.086136 
	C490.569489,63.116684 438.955231,11.533646 376.793365,2.788973 
	C374.654968,2.488150 372.535461,2.052792 370.203583,1.340070 
	C413.593353,1.000000 457.186737,1.000000 501.000000,1.000000 
	C501.000000,44.020645 501.000000,87.041664 501.000000,130.531342 
z"/>
<path fill="#F4F6F7" opacity="1.000000" stroke="none" 
	d="
M1.000000,374.468658 
	C2.853160,380.724243 4.580405,387.486176 6.579724,394.166656 
	C20.487047,440.636322 50.018780,472.793915 94.864632,491.297485 
	C105.240044,495.578430 115.766998,498.557434 126.886658,500.600128 
	C85.072739,501.000000 43.145477,501.000000 1.000000,501.000000 
	C1.000000,458.979370 1.000000,416.958344 1.000000,374.468658 
z"/>
<path fill="#F4F6F7" opacity="1.000000" stroke="none" 
	d="
M442.791321,471.721680 
	C442.918793,471.424103 443.126404,471.201172 443.862671,470.882568 
	C444.602112,470.534851 444.826416,470.295044 444.984070,469.992859 
	C445.610870,469.426422 446.237671,468.859955 447.395721,468.104919 
	C448.262848,467.567444 448.598755,467.218628 448.934662,466.869812 
	C462.081848,455.150055 473.402588,441.944183 482.046600,426.516449 
	C490.769775,410.947357 496.549652,394.387634 499.202057,376.734283 
	C499.472809,374.932190 499.936859,373.159119 500.655640,371.186279 
	C501.000000,414.258881 501.000000,457.517731 501.000000,501.000000 
	C459.646027,501.000000 418.291687,501.000000 376.468658,501.000000 
	C378.792664,500.034424 381.585297,499.068878 385.149689,498.064941 
	C388.257996,497.370605 390.594543,496.714630 392.931122,496.058655 
	C392.931122,496.058655 393.035614,495.939545 393.509399,496.005493 
	C397.672394,494.771118 401.361603,493.470795 405.050781,492.170471 
	C405.050781,492.170471 405.128296,492.042633 405.586426,492.081482 
	C413.014008,490.511688 419.854614,488.631165 424.986328,483.144379 
	C424.986328,483.144379 425.270111,482.890930 425.713501,482.792725 
	C426.424438,482.470703 426.692017,482.246857 426.959595,482.023010 
	C426.959595,482.023010 427.166199,481.771851 427.697968,481.774292 
	C429.487732,480.871704 430.745728,479.966705 432.003723,479.061646 
	C432.003693,479.061646 432.192810,478.824371 432.712891,478.797028 
	C434.473999,477.824371 435.715057,476.879059 436.956116,475.933777 
	C436.956146,475.933777 436.981842,475.995209 437.175629,475.892456 
	C437.648743,475.619751 437.860046,475.387787 438.003326,475.093842 
	C438.003326,475.093842 438.194672,474.846497 438.675415,474.778564 
	C439.762939,474.144135 440.369751,473.577667 440.976532,473.011169 
	C440.976532,473.011169 440.977386,472.967102 441.276215,472.910339 
	C441.980469,472.476288 442.385895,472.098969 442.791321,471.721680 
z"/>
<path fill="#F4F6F6" opacity="1.000000" stroke="none" 
	d="
M88.556168,353.555298 
	C99.007103,326.835175 109.369759,300.493866 119.538368,274.077820 
	C120.981003,270.330200 122.754845,268.796539 127.046532,268.811188 
	C177.859070,268.984955 228.672424,268.916504 279.485565,268.931305 
	C281.219971,268.931824 282.954315,269.138306 284.688690,269.248779 
	C284.909088,269.811035 285.129517,270.373260 285.349915,270.935516 
	C278.093872,275.200165 270.837830,279.464813 263.062378,284.034729 
	C273.964233,302.993439 284.629913,321.541412 295.635376,340.680328 
	C302.173889,336.903412 308.310242,333.331024 314.474182,329.806885 
	C319.565521,326.896057 324.014160,329.465759 324.062622,335.350769 
	C324.109253,341.014862 324.298737,346.690796 324.008118,352.340057 
	C323.809814,356.194763 325.250061,357.203278 328.906128,357.050293 
	C335.225464,356.785889 341.572632,356.822662 347.889954,357.119446 
	C349.549591,357.197449 352.093201,358.307983 352.618805,359.600098 
	C357.761688,372.242157 362.567505,385.021423 367.440979,397.772461 
	C367.601318,398.192047 367.461304,398.726501 367.461304,399.651123 
	C268.727539,399.651123 170.067581,399.651123 70.489655,399.651123 
	C76.568840,384.130768 82.487381,369.020508 88.556168,353.555298 
z"/>
<path fill="#F4F6F6" opacity="1.000000" stroke="none" 
	d="
M231.894257,102.974899 
	C268.254303,111.036247 291.912506,139.260193 292.075806,174.309326 
	C292.215179,204.218857 274.239563,231.257614 247.016129,242.087738 
	C218.381775,253.479126 187.141251,246.662979 166.260101,224.468170 
	C144.994919,201.865097 140.402481,168.230057 154.860962,140.980377 
	C169.779938,112.862801 199.904587,97.896729 231.894257,102.974899 
z"/>
<path fill="#F2F5F7" opacity="1.000000" stroke="none" 
	d="
M283.902588,242.628754 
	C289.580597,232.874496 295.092773,223.427231 300.805695,213.635880 
	C306.051666,216.589951 310.865143,219.164215 315.531036,221.982788 
	C318.035828,223.495926 319.846008,223.225037 322.264282,221.511795 
	C326.040985,218.836121 330.130859,216.487122 334.355896,214.599152 
	C337.289307,213.288315 338.299774,211.626495 338.148804,208.553284 
	C337.936584,204.232880 337.888641,199.876785 338.235413,195.573441 
	C338.338776,194.291412 339.978516,192.100494 340.952759,192.079163 
	C352.238251,191.831802 363.531097,191.921112 375.565063,191.921112 
	C375.565063,197.900650 375.653137,203.352371 375.528839,208.799240 
	C375.464294,211.628204 376.352539,213.208267 379.158691,214.456100 
	C383.539856,216.404297 387.771271,218.855545 391.682831,221.633362 
	C394.163513,223.395020 395.986908,223.405991 398.416962,221.921570 
	C402.955292,219.149292 407.621063,216.585602 412.885834,213.560440 
	C419.109802,224.241013 425.185822,234.667725 431.705658,245.856049 
	C426.844543,248.670685 422.250031,251.518906 417.476044,254.025406 
	C414.562805,255.554916 413.478119,257.427063 413.960114,260.777557 
	C414.453827,264.209381 414.867889,267.890411 414.146088,271.207611 
	C412.829102,277.259491 415.260193,280.421356 420.501282,282.741241 
	C424.243622,284.397705 427.657166,286.797058 431.657013,289.120239 
	C425.312286,300.087616 419.267944,310.535706 412.931458,321.488861 
	C407.766083,318.538727 402.974365,315.966766 398.364380,313.102295 
	C395.913116,311.579193 394.187195,311.597534 391.700836,313.363892 
	C387.659912,316.234650 383.011292,318.238647 378.875549,320.993378 
	C377.400391,321.975922 375.862274,324.021454 375.747772,325.678192 
	C375.361145,331.273346 375.600464,336.911804 375.600464,343.077484 
	C363.426910,343.077484 351.975677,343.150146 340.530273,342.926392 
	C339.700623,342.910156 338.289978,340.776642 338.216492,339.562988 
	C337.935120,334.915375 338.368317,330.215149 337.933533,325.591095 
	C337.777161,323.927673 336.256927,321.923767 334.782135,320.941681 
	C330.507599,318.095215 326.024567,315.521454 321.438721,313.206482 
	C319.985626,312.472992 317.626801,312.224640 316.241516,312.900330 
	C311.185242,315.366608 306.365051,318.316956 300.822113,321.442261 
	C294.586975,310.717407 288.523193,300.287292 282.047668,289.148926 
	C287.086426,286.217987 291.855682,283.310089 296.758057,280.647278 
	C299.306732,279.262909 300.054321,277.629425 299.745361,274.650940 
	C299.268219,270.050842 299.223297,265.330444 299.697388,260.733490 
	C300.017639,257.628143 299.490936,255.770523 296.641327,254.309830 
	C292.645905,252.261749 288.889923,249.751175 284.931763,247.624084 
	C282.641510,246.393356 282.103180,245.018585 283.902588,242.628754 
M380.497437,275.721771 
	C380.747833,274.755615 381.037109,273.797638 381.242737,272.822021 
	C384.092773,259.301514 375.713806,246.047211 362.485870,243.134720 
	C348.994690,240.164246 335.902344,248.248672 332.558136,261.614777 
	C329.434631,274.099030 336.459229,286.945923 348.710541,291.154816 
	C361.614288,295.587921 374.138947,289.730316 380.497437,275.721771 
z"/>
<path fill="#CFEDFC" opacity="1.000000" stroke="none" 
	d="
M424.636383,483.193604 
	C419.854614,488.631165 413.014008,490.511688 405.655975,492.108887 
	C411.607086,489.145935 417.946777,486.194366 424.636383,483.193604 
z"/>
<path fill="#CFEDFC" opacity="1.000000" stroke="none" 
	d="
M404.676514,492.190002 
	C401.361603,493.470795 397.672394,494.771118 393.581909,496.037415 
	C396.887848,494.738770 400.595062,493.474152 404.676514,492.190002 
z"/>
<path fill="#CFEDFC" opacity="1.000000" stroke="none" 
	d="
M392.551270,496.029541 
	C390.594543,496.714630 388.257996,497.370605 385.531403,497.970886 
	C387.484711,497.276947 389.828064,496.638702 392.551270,496.029541 
z"/>
<path fill="#CFEDFC" opacity="1.000000" stroke="none" 
	d="
M431.676483,479.124573 
	C430.745728,479.966705 429.487732,480.871704 427.856232,481.736938 
	C428.771576,480.860596 430.060394,480.024048 431.676483,479.124573 
z"/>
<path fill="#CFEDFC" opacity="1.000000" stroke="none" 
	d="
M436.625732,475.998169 
	C435.715057,476.879059 434.473999,477.824371 432.862549,478.772217 
	C433.759857,477.870697 435.027588,476.966644 436.625732,475.998169 
z"/>
<path fill="#CFEDFC" opacity="1.000000" stroke="none" 
	d="
M440.668518,473.073761 
	C440.369751,473.577667 439.762939,474.144135 438.827393,474.741943 
	C439.119324,474.227600 439.739929,473.681976 440.668518,473.073761 
z"/>
<path fill="#CFEDFC" opacity="1.000000" stroke="none" 
	d="
M442.508850,471.768860 
	C442.385895,472.098969 441.980469,472.476288 441.297302,472.916748 
	C441.421814,472.591980 441.824097,472.204010 442.508850,471.768860 
z"/>
<path fill="#CFEDFC" opacity="1.000000" stroke="none" 
	d="
M448.691010,466.922821 
	C448.598755,467.218628 448.262848,467.567444 447.689148,467.976776 
	C447.783325,467.683441 448.115356,467.329651 448.691010,466.922821 
z"/>
<path fill="#CFEDFC" opacity="1.000000" stroke="none" 
	d="
M437.755310,475.134827 
	C437.860046,475.387787 437.648743,475.619751 437.147217,475.875183 
	C437.119080,475.699036 437.313171,475.437439 437.755310,475.134827 
z"/>
<path fill="#CFEDFC" opacity="1.000000" stroke="none" 
	d="
M426.689667,482.058105 
	C426.692017,482.246857 426.424438,482.470703 425.900696,482.758911 
	C425.902924,482.579926 426.161346,482.336578 426.689667,482.058105 
z"/>
<path fill="#CFEDFC" opacity="1.000000" stroke="none" 
	d="
M444.728210,470.046448 
	C444.826416,470.295044 444.602112,470.534851 444.082275,470.807373 
	C444.059723,470.634979 444.266022,470.367523 444.728210,470.046448 
z"/>
<path fill="#228AE2" opacity="1.000000" stroke="none" 
	d="
M380.335052,276.081085 
	C374.138947,289.730316 361.614288,295.587921 348.710541,291.154816 
	C336.459229,286.945923 329.434631,274.099030 332.558136,261.614777 
	C335.902344,248.248672 348.994690,240.164246 362.485870,243.134720 
	C375.713806,246.047211 384.092773,259.301514 381.242737,272.822021 
	C381.037109,273.797638 380.747833,274.755615 380.335052,276.081085 
z"/>
</svg>